<mxfile host="Electron" modified="2024-05-22T19:48:44.494Z" agent="Mozilla/5.0 (Macintosh; Intel Mac OS X 10_15_7) AppleWebKit/537.36 (KHTML, like Gecko) draw.io/24.4.6 Chrome/124.0.6367.207 Electron/30.0.6 Safari/537.36" etag="TrV2ukc-fwHTs3oP3pyP" version="24.4.6" type="device">
  <diagram name="AI Accelerator Overview" id="0FAeVBQObE7vDUTavAqP">
    <mxGraphModel dx="1242" dy="907" grid="1" gridSize="10" guides="1" tooltips="1" connect="1" arrows="1" fold="1" page="1" pageScale="1" pageWidth="1169" pageHeight="827" background="none" math="0" shadow="0">
      <root>
        <mxCell id="wXt4vkHNkHTHuegMzTYd-0" />
        <mxCell id="wXt4vkHNkHTHuegMzTYd-1" parent="wXt4vkHNkHTHuegMzTYd-0" />
        <mxCell id="wXt4vkHNkHTHuegMzTYd-2" value="&lt;b&gt;OpenShift&amp;nbsp;&lt;/b&gt;Container Platform" style="fillColor=#F6F6F6;strokeColor=none;shadow=0;gradientColor=none;fontSize=14;align=left;spacing=10;fontColor=#717171;9E9E9E;verticalAlign=top;spacingTop=-4;fontStyle=0;spacingLeft=40;html=1;container=0;" parent="wXt4vkHNkHTHuegMzTYd-1" vertex="1">
          <mxGeometry x="450" width="570" height="530" as="geometry" />
        </mxCell>
        <mxCell id="pPhfuKdi2IL3OO1udsqk-2" value="Red Hat Services:&amp;nbsp;&lt;b&gt;AI Accelerator&amp;nbsp;&lt;/b&gt;Project" style="fillColor=#d5e8d4;strokeColor=#82b366;shadow=0;fontSize=14;align=left;spacing=10;9E9E9E;verticalAlign=top;spacingTop=-4;fontStyle=0;spacingLeft=40;html=1;" parent="wXt4vkHNkHTHuegMzTYd-1" vertex="1">
          <mxGeometry width="330" height="390" as="geometry" />
        </mxCell>
        <mxCell id="pPhfuKdi2IL3OO1udsqk-3" value="" style="image;aspect=fixed;html=1;points=[];align=center;fontSize=12;image=img/lib/azure2/containers/Azure_Red_Hat_OpenShift.svg;" parent="pPhfuKdi2IL3OO1udsqk-2" vertex="1">
          <mxGeometry x="12" y="9.75" width="20.25" height="20.25" as="geometry" />
        </mxCell>
        <mxCell id="pPhfuKdi2IL3OO1udsqk-9" value="Bootstrap Scripts" style="strokeColor=#dddddd;shadow=1;strokeWidth=1;rounded=1;absoluteArcSize=1;arcSize=2;" parent="pPhfuKdi2IL3OO1udsqk-2" vertex="1">
          <mxGeometry x="56.85" y="60" width="223.15" height="60" as="geometry" />
        </mxCell>
        <mxCell id="pPhfuKdi2IL3OO1udsqk-17" value="" style="strokeColor=#dddddd;shadow=1;strokeWidth=1;rounded=1;absoluteArcSize=1;arcSize=2;" parent="pPhfuKdi2IL3OO1udsqk-2" vertex="1">
          <mxGeometry x="56.85" y="150" width="223.15" height="60" as="geometry" />
        </mxCell>
        <mxCell id="pPhfuKdi2IL3OO1udsqk-18" value="&lt;font color=&quot;#000000&quot;&gt;Clusters&lt;/font&gt;&lt;br&gt;Kustomize / YAML" style="editableCssRules=.*;html=1;fontColor=#999999;shape=image;verticalLabelPosition=middle;verticalAlign=middle;labelPosition=right;align=left;spacingLeft=20;part=1;points=[];imageAspect=0;image=data:image/png,iVBORw0KGgoAAAANSUhEUgAAAJYAAACWCAMAAAAL34HQAAAAaVBMVEU2VZ7///+vu9h/ksHR2OmDlsOls9O5xN7J0eV0ibxDYKSRosqjsNJ7j785V5+Zqc5tg7hOaaqMncfu8ff4+fzq7fXg5PDDzOKxvdm6xd5Zc69GY6ZAXqPs7/b09vpherPY3uxVbq1mfrWO/FxLAAAD/UlEQVR4nO3c2ZKqMBAG4IAMoqwqqyg6vv9Djp7ZmM5C46HbXOS/tCzzFSSBdEDhWRnxaoA6jjUnjjUnkDXUQUSUoD48y6qa1qdLVz/HqglN/xKUT7CqNTWrvc5nlRG1yvfXuMM1ZtEfrHtw3WvMulJ29+8Es1kBg8qPUGfRsRzrRawwWTpd9chheJ4VxqvlE3/9eFOZDpuBlb8RqH5YfmuawfQsGtUvyzizalkhjWrMaqv5LIp+BVh+N5sV7hlYvnY8allE5/AvS3sWHcuxbGClS2QfjlLrLkBo1ua93y6RfjfK8bJS31EgWem7oMpFNaniWOmOTCXETuFCsdIjoerukns+inUjVQmRPsei61ifyaRSDoaV9sQsET3D2mypWWvHcizHcizHcizHcizHcizHYmXtinEy5Xe2BYhiebcsK8v//JZygdTDVU3pW8B6h7vTh/jEyyoVrL6BDapU3Kwt3BEoY+UP8bL6VjpW6mHByjpJreWaH+JkZQno7aWv6lfMrGwD22p1KkZWloNjNejOICsrBzWrITFcwthYG1hANqnYWCns7aEBxcYq4I5cqJ6veFkr2K/Mx4qJlYKnjspkqvjKwZLK7M1kSZiBVYBjNXkGWVgXcNNQhojyOTnrBG9lfExRn5rVQ1WLQJGzMnjjrr86M7LgFlyJO1bErKMPLjmofkXOaoGqRm+Oki7IYMo3K1neFbtry8vyOjtZugXYq1ln3H4yN8urUfMpO0tdc3g9CzVL8LO8+mIF6wrbiKZHIz2r2vTwYYvp00jOOt8n9j1Yjg2TD8NQs87F/eMTfMRoPXUaiVnVZ/c+gtdmJtbU1Kw6/fp8BVo5TIxGUlb924dgdXLi1ouUNbqN6eHbT83rWKOvZVIhaWXq9nxlNzgajZM9H2sHV4yNDdVAReUtsYJ1gpNaWdjAEgKOxkq74mBl3WCpUjtL8O75JLC1vRWsIxyNusmeeeNO2l/p1Hf23NucPmiuVJ9GbtYOvuo6KEcjN0vc4LUxUnUvdpYIoatVXLONrCsFS3rgYFCsOIys8XvVi7FEcQZNHuTuZWSVDQUri2Gb8r2EkeXVLQFLnOBolJ86MLNGLhxrFYwS6Yogxyj4mwZ+c4L1+368RU8kPTLUUfPIOt7/ZPV61ncOo1GZU77l41iO5VgG1tBYyRrfTtjEGlorWaPro1Usr15byfKqqGsfSexi3aeJ+pGG+rXJuayvs0n76quQa3Qo1nS5/38j/Y8GhqWtaCyVrfS/EChWQPvyaxZKLaJYqmfJF8xF/s83FMvzEtyzMs8ku8GFJJ5Vroset0k/M6djrvr3BSTrPoV1Sbx8cs2fxqBZvHGsOXGsOXGsObGU9QF47pwRuF4ZUwAAAABJRU5ErkJggg==;" parent="pPhfuKdi2IL3OO1udsqk-17" vertex="1">
          <mxGeometry width="30" height="30" relative="1" as="geometry">
            <mxPoint x="15" y="15" as="offset" />
          </mxGeometry>
        </mxCell>
        <mxCell id="pPhfuKdi2IL3OO1udsqk-19" value="" style="strokeColor=#dddddd;shadow=1;strokeWidth=1;rounded=1;absoluteArcSize=1;arcSize=2;" parent="pPhfuKdi2IL3OO1udsqk-2" vertex="1">
          <mxGeometry x="56.849999999999994" y="220" width="223.15" height="60" as="geometry" />
        </mxCell>
        <mxCell id="pPhfuKdi2IL3OO1udsqk-20" value="&lt;font color=&quot;#000000&quot;&gt;Components&lt;/font&gt;&lt;br&gt;Kustomize / YAML" style="editableCssRules=.*;html=1;fontColor=#999999;shape=image;verticalLabelPosition=middle;verticalAlign=middle;labelPosition=right;align=left;spacingLeft=20;part=1;points=[];imageAspect=0;image=data:image/png,iVBORw0KGgoAAAANSUhEUgAAAJYAAACWCAMAAAAL34HQAAAAaVBMVEU2VZ7///+vu9h/ksHR2OmDlsOls9O5xN7J0eV0ibxDYKSRosqjsNJ7j785V5+Zqc5tg7hOaaqMncfu8ff4+fzq7fXg5PDDzOKxvdm6xd5Zc69GY6ZAXqPs7/b09vpherPY3uxVbq1mfrWO/FxLAAAD/UlEQVR4nO3c2ZKqMBAG4IAMoqwqqyg6vv9Djp7ZmM5C46HbXOS/tCzzFSSBdEDhWRnxaoA6jjUnjjUnkDXUQUSUoD48y6qa1qdLVz/HqglN/xKUT7CqNTWrvc5nlRG1yvfXuMM1ZtEfrHtw3WvMulJ29+8Es1kBg8qPUGfRsRzrRawwWTpd9chheJ4VxqvlE3/9eFOZDpuBlb8RqH5YfmuawfQsGtUvyzizalkhjWrMaqv5LIp+BVh+N5sV7hlYvnY8allE5/AvS3sWHcuxbGClS2QfjlLrLkBo1ua93y6RfjfK8bJS31EgWem7oMpFNaniWOmOTCXETuFCsdIjoerukns+inUjVQmRPsei61ifyaRSDoaV9sQsET3D2mypWWvHcizHcizHcizHcizHcizHYmXtinEy5Xe2BYhiebcsK8v//JZygdTDVU3pW8B6h7vTh/jEyyoVrL6BDapU3Kwt3BEoY+UP8bL6VjpW6mHByjpJreWaH+JkZQno7aWv6lfMrGwD22p1KkZWloNjNejOICsrBzWrITFcwthYG1hANqnYWCns7aEBxcYq4I5cqJ6veFkr2K/Mx4qJlYKnjspkqvjKwZLK7M1kSZiBVYBjNXkGWVgXcNNQhojyOTnrBG9lfExRn5rVQ1WLQJGzMnjjrr86M7LgFlyJO1bErKMPLjmofkXOaoGqRm+Oki7IYMo3K1neFbtry8vyOjtZugXYq1ln3H4yN8urUfMpO0tdc3g9CzVL8LO8+mIF6wrbiKZHIz2r2vTwYYvp00jOOt8n9j1Yjg2TD8NQs87F/eMTfMRoPXUaiVnVZ/c+gtdmJtbU1Kw6/fp8BVo5TIxGUlb924dgdXLi1ouUNbqN6eHbT83rWKOvZVIhaWXq9nxlNzgajZM9H2sHV4yNDdVAReUtsYJ1gpNaWdjAEgKOxkq74mBl3WCpUjtL8O75JLC1vRWsIxyNusmeeeNO2l/p1Hf23NucPmiuVJ9GbtYOvuo6KEcjN0vc4LUxUnUvdpYIoatVXLONrCsFS3rgYFCsOIys8XvVi7FEcQZNHuTuZWSVDQUri2Gb8r2EkeXVLQFLnOBolJ86MLNGLhxrFYwS6Yogxyj4mwZ+c4L1+368RU8kPTLUUfPIOt7/ZPV61ncOo1GZU77l41iO5VgG1tBYyRrfTtjEGlorWaPro1Usr15byfKqqGsfSexi3aeJ+pGG+rXJuayvs0n76quQa3Qo1nS5/38j/Y8GhqWtaCyVrfS/EChWQPvyaxZKLaJYqmfJF8xF/s83FMvzEtyzMs8ku8GFJJ5Vroset0k/M6djrvr3BSTrPoV1Sbx8cs2fxqBZvHGsOXGsOXGsObGU9QF47pwRuF4ZUwAAAABJRU5ErkJggg==;" parent="pPhfuKdi2IL3OO1udsqk-19" vertex="1">
          <mxGeometry width="30" height="30" relative="1" as="geometry">
            <mxPoint x="15" y="15" as="offset" />
          </mxGeometry>
        </mxCell>
        <mxCell id="bmn1_vXYTztaUBc_xjYz-88" value="" style="strokeColor=#dddddd;shadow=1;strokeWidth=1;rounded=1;absoluteArcSize=1;arcSize=2;" parent="pPhfuKdi2IL3OO1udsqk-2" vertex="1">
          <mxGeometry x="56.85" y="300" width="223.15" height="60" as="geometry" />
        </mxCell>
        <mxCell id="bmn1_vXYTztaUBc_xjYz-89" value="&lt;font color=&quot;#000000&quot;&gt;Tenants&lt;/font&gt;&lt;br&gt;Project Structure, Examples" style="editableCssRules=.*;html=1;fontColor=#999999;shape=image;verticalLabelPosition=middle;verticalAlign=middle;labelPosition=right;align=left;spacingLeft=20;part=1;points=[];imageAspect=0;image=data:image/jpeg,/9j/4AAQSkZJRgABAQAAAQABAAD/2wCEAAkGBxISEBURERMWFhUWGBYWFRUSFxgZFRUeGRcZFiAdHx8YKDQgHSYlJx4fITklJTUrLjEuGB8zOD0uNy4tLjEBCgoKDg0OGxAQGyslICAtLS0tLy4tLS0tLSstLS0tLS0rLS0rLS0tLystLS0tKy0tLS4tLS0vLS0tLS0tLS0tLv/AABEIAOEA4QMBEQACEQEDEQH/xAAbAAEBAAIDAQAAAAAAAAAAAAAAAQIFBAYHA//EAEMQAAECAggEAwUDCgUFAAAAAAEAAhEhAwQSMTJBYYEiUXGhBQaRBxSxwdETcqIVFzNCUlNUgpPSI0NjkrIkYsLh8P/EABoBAQEAAwEBAAAAAAAAAAAAAAABAwQFAgb/xAAzEQEAAQIDBAcIAgMBAAAAAAAAAQIDBBFREhQxcQUTITJBYZEVIjNSgbHB0TThQqHwI//aAAwDAQACEQMRAD8A9qc63IdZoIHQFjO7SaAzgvz5IAbA28r9ZoDm25jpNBXOtyHWaCB0BYzu0mgM4L8+SAGwNvK/WaA5tuY6TQVzrch1mggdAWM7tJoDOC/PkgBsDbyv1mgPbbmOk0Fe63IdZoIHQFjO7SaAzgvz5IAbA28r9ZoDm25jpNBXOtyHWaCB0BYzu0mgM4L8+SAGwNvK/WaA5tuY6TQVzrch1mggdAWM7tJoDOC/Pkgy94GqDFwAwX6TQABCJxd9JIDJ49oyQQExgcPbSaA4kYLtJoK4AYL9JoAAhE4u+kkBk8e0ZIICYwOHtpNBpfGvNVWqxLbdpwvZRQcQdTcOhKz28PXX2xHYwXMRRR2TPa6nXfaFSk/4FEyjHN5L3fIDutunBUx3patWNqnuw0tZ82V15iadw+4Gt/4iKzRh7UeDDOIuz4uBS+LVh2Knpj1pHn5r31dEeEejH1les+r4urdIb6R56ud9VdmNE2qtUbW6QXUjx0c76psxou1Vq+1F4tWG4aemHSkePmpNujSPRYrr1n1c+r+bq6wx+3LtHta74iKxTh7c+DJGIuR4t5UfaNSSFYoWvHOjJaRsYg+oWGrBx/jLNTjJ/wAodu8F8zVatENZSQP7uk4X/wDvYlalyzXRxht271FfCW3cSMF2k1iZVcAMF+k0AAQicXfSSAyePaMkEBMYHD20mgOJGC7SaCuAGC/SaAAIROLvpJAZPHtGSDKwzT1QY2bE78kCzHj3h0QMekN70C1Hg2j0QLViV+fJAs2J35ckCzHj3h0QMekN70HnnnPze9znVarussbwvpG4nkSIByGov6X9LDYaIjarc7EYmZnZo4OkLdaTGKAoCKiCKAiiCKBFFd98l+dnAir1o2gTBlK4zBuAcc4/tevMaN/Dx3qPRu2MRPdq9XoVmxO/LktFvFmPHvDogY9Ib3oFqPBtHogWrEr8+SBZsTvy5IFmPHvDogY9Ib3oHu2vZAaCMd2s0EIMYjD21kgr54N4SQCRCAxd9ZoDSBjv1mgjQRju1mgEGMRh7ayQa/zLWzR1SmpKMwLWOmJQJkDtGKyWaYquREsd6qaaJmHiy7biuz+RvL7KzSOpKb9FRwFmfG4zgYZC89RqtXE3ptxlHGW1hrMXJznhD0ij8MoWtsOoaOxCFmw0t9ILmbdWeeculsU5ZZQ888++XGVctp6AQonmyW5NdAmUcjAyyhqAOjhb81+7VxhzsTYij3qeEuoLbaqKAiiCKCIooIUV7F5G8UNYqbXUhi5hNE4mcS2BB6lpE+cVy8RRsV9ni6mHr2qO3wb4gxiMPbWSwMyvng3hJAJEIDF31mgNIGO/WaCNBGO7WaAQYxGHtrJBXzwbwkgxsP19UGTXW5HrJBC6BsZXazQV/Bdnz0QC2At536TQGttzPSSCMdbkeskAugbGV2s0Go85ts1GnAzZnoQs2H+LSw4j4cvHF2HHegey6tMLaWgJg+19o0ftAgNMOkB/uWhjaJzir6Ohgq4ymn6u9MdbkesloN50v2n19raFlWBBcXh8Mw0Az3JhsVu4OidqamnjK42YpebLoOcIogigiKKCIqIPTPZSI1emBu+1j+BoXPxnejk38J3Z5u6l0DYyu1mtRtq/guz56IBbAW879JoDW25npJBGOtyPWSAXQNjK7WaCv4Ls+eiDH3g6IM3utyHWaCB0BYzu0mgM4L8+WiCBsDbyv1mgPbbmOk0Fc63IdZoAdAWM7tJoNN5vbZqFYBzZloQs2H+JDDiPh1PHF2HHZ0NM5jg9ji1zTEOaYEKTETGUvUTMTnDsB8812xZNI0n9osba/t7LX3W3nnkz71cyyzdfrNYfSOL6Rxc43ucYkrPERTGUMEzNU5y+SoIIoIiigiKiAg9L9lbY1emA/ex/A1c/Gd6OTfwndnm7uHQFjO7Sa1G2M4L8+WiCBsDbyv1mgPbbmOk0Fc63IdZoAdAWM7tJoDOC/Plogy94GqDFwAwX6TQABCJxd9JIDJ49oyQQExgcPbSaA4kYLtJoK4AYL9JoAAhE4u+kkGo81Mc+pU4gS6xwgAxMxcBestiYi5EyxX4ztzk8mPhVY/h6b+k/6LrdZRrHq5PV16T6Sg8KrH8PTf0n/ROso1j1NirSfSU/JVY/cU39J/0TrKNY9V2KtJ9JT8lVj9xTf0n/AEU6yjWPU2KtJ9JD4VWP4em/pP8AonWUax6mxVpPpJ+Sax/D039J/wBE6yjWPVdirSfRxHtIJaQQQYEEQIIyINy9ZvLFQRFRAQFFel+ysn3amhf9r2sNWhi+9HJvYTuzzd3AEInF30ktRtjJ49oyQQExgcPbSaA4kYLtJoK4AYL9JoAAhE4u+kkBk8e0ZIMrDNPVBjZsTvyQLMePeHRAx6Q3vQLUeDaPRBrqx4/VaElr6ejjmLQiNhErJTZuVcIljm9bjjMOMzzTUmzFYYdnD5L1u93R53i3qHzTUibXvDOnFlsm73NDeLequ811J19YYIfe+ibvc0N4t6h821Iiz7wzrxZbJu9zQ3i3qN821JshWGH/AHfRN3uaG8W9Ub5qqTZisMOX630Td7mh19vUPmqpE2veGdOLLZN3uaHX29R3mypOvrDBD730Td7mh19vUPm6pEWfeGdeLLZOouaL19vV5N45StfWqd7DFrqWkc0i4gvJBXTtxMURE6OZcnOqZjVwV6eUQEBRUQemeyl0KvTH/Vh+BpWhi+9HJvYTuzzdtpq40OmDGVwEPWK4WI6UtWLk26onONMuerpUYequnOMmNJ4i114cPQ/NYfbdj5av9ft73SvWP++inxJpFmB6ySOmrHy1ekfs3SvWH1oK225pjnyK3rGNsX+yirt04Sw12q6OMPtZsTvy5LaYyzHj3h0QMekN70D3bXsgNBGO7WaCEGMRh7ayQa/x/wAaoqrR/aOPMNa2TnnkPrkslq1VcnKGO5dptxnLy/xzzLWKySHOss/dsk3+Y3u3loF1bdii3w46uXcv13OPDRpVmYUUBFRBFARRBFBEUUERUQEBRUQRB6b7JyPd6aN32vew1aGL70cm/hO7PN2DxAj7Qwul8AvhulP5VX0+0O5h/hw465zOiKiDY1Cuzs0hjyJmvoOjuk5qmLV6eU/ifxLSv4fL3qXPIMYjD21ku+0lfPBvCSDGw/X1QZNdbkeskHyrVZbRNcXkBjQS4nIQiVYiZnKEmYiM5eNeO+LOrNM6ldEC5jT+o3Idczqu1atxbp2Yca7cm5VtS1y9saICKiCKAiiCKKiAoIiogKAiogiCIPTfZOI1emH+rH8DQtDF96OTfwndnm7D4g2FIR0+AXwvSn8qr6faHdw/w4cZc9nRBEUQbioVouaGnoec819f0biuvs+93qeyfxP1++bl4i3sVdnCXKfwXZ89F0GBj7wdEGb3W5DrNB032leJGjq7KsDOkdF0P2WwMNyR/tK3cFRnVNWjTxleVMU6vNV0XNRARUQRQEUQRRUQFBEVEBQEVEEQRAUV6d7KaMmq0utN8KNn1Whi+9HJvYTuzzb+viFIR0+AXw3Sv8qr6faHdw3w4cZc9nEERUUHL8MpYPh+0LO+X/2q6nRF7q8RFPhV2fmP19WviqM6M9G4ZwX58tF9Y5jL3gaoMXADBfpNB5P7QK2X15wP+W1jO1s/8obLrYSnK3Hm5WKqzuT5OtrYawiogigIogiiogKCIqICgIqIIgiAoqEoPafJXh5q9Rom/wCY6NI8Zi3xQI0FkbLl36tquZdOxTs0REsq2+L3E84ekl8Nj64rxNcxrl6dn4duzGVuHxWoyIiooIismPgQeRB9F7t17FcV6TE+iVU7UTGrsTJ49oyX3riMrDNPVBjZsTvyQeJeP01ut07udLSegcQOwXbtRlREeTi3ZzrmfOXAXt4RBFARRBFFRAUERUQFARUQRBEBRUQdv8j+VXUz21inbChaQ5rXS+1Iu/l1zu5rVv3tmNmOLZsWdr3p4PU6d32TS6Mch1XHxeIixamufpz8HTt0bdUQ0RK+Jzz4usiKigiKIIVJV2Kh42jKAG8QvvLPw6eUfZxK+9LP3bXssryMBB47tZzQeE150aWkPN7z+IruU92HEq70vgvTyigIogiiogKDc1LypXKWBFA5oOdJBnZ0+yxVX7dPizU2LlXCGx/N7Xc/sh1efk1Y97t+bJutzyPzeV2+NDDnbd/am92/M3W55A9ntdNxoT/O75tTerfmbrc8k/N7XLo0MeVt39qm9W/M3W55B9nlcF5oR/O75NTerfmbrc8h3s7rovNCP53fJqb1b8zdbnkn5u67fGhhztu/tTeqPNd1r8nIqvs2rLsdLRNH/ZaefQhvxXmcXT4RKxhavGYdm8H8iVShgXRpqQfvIWARyaJesVgrxFdXDsZ6MPRTx7XaLbWD/E7zWndvUWqduucobVNM1TlDTVqsl5zgLgV8lj8bOJr0pjhH5nz+zpWbMW483wWizooIiiCIqFQdjo5tbZ5CMJZL7yx8KnlH2cSvvTzWw/X1WV5ZMdbMD1kg8IrzYUtIOT3j0cV3Ke7DiVd6XwVeRFEEUVEHIqFSfTUjaKiEXOMByHMnkBevNVUUxnL1TTNU5Q9b8u+VaGpsDwLdNARpHDnk0fqjvzXLu36rnJ07Vimjm3NJSthF5gboBaN/F2rHxJy8vH0bNFuqrhDjUniEZWfkuVc6bpjuUTPOcv2zxhZ8ZYjxEwhAQ7rD7bufJHq97rGqM8QIuaN09t3Pkj1k3WNUHiBjGyI9U9t3Pkj1ld0jVH+IE3tGxT23c+SPWTdI1V/iTjItG0U9t3Pkj1k3SnUHiboQsiG6e27nyR6ybpTqjPEiLmjdT25c+SPWV3SnV83V98YiA2+qw19M4irhlH0/f6eowtEcXGpaQuMXEk6rnXLtd2dquZmWxTTFMZRDBY3pFBEUQRFRAKkq7HRmw1sMwL+i+8sfCp5R9nDr708194OiyvLNzrch1mg8O8corFap28qWkH4zBdq3OdEcocW5GVc85cFe3kQRRUQFB6d7M/CxRUBrLxx00QzmGNMPxGfQNXPxdzOrZ0dDC28qdqfF2et09kyvM+kV8/0jj+ojYo70/wCv7dOzZ2+2eDgOMZlfMVVTVOcznLeiMuyGK8qiAiogiKKCIqICCIqKCIogiKIIoqFJHZKvwNEcwLui+8s/Dp5R9nDr7083194GqyvLFwAwX6TQeQee6uWV+lj+vZeN2gHuCuthqs7cOViYyuS0CzsCKKiAoMSg968OqwoqFlGZCjY1oywthvcuJcr41z5y7VFOURTDXPfEknNfC3bs3a5rq4y61NOzGUMFjehBEVEERRQRFRAQRFRQRFEERRBFFRBWNiQ3mQPVe7dvrK4o1mI9Uqq2YmdHZmTx7RkvvnCZWGaeqDGzYnfkg6D7UqgSKKtAc6J3dzf/AC9Qt7B18afq0cZRwq+jz5bzSRAUERX0q2Nv3m/EKTwWOL3itOtMcboD1ivmsdOWGr5S7tqPfhqF8Y6YgiKiCIooIiogIIiooCKiCIogiiogiDneEUMX2smCO+Q+K6vQ9jrL+34U/eeyPy1cXXs0Zat1j0hvevrHLPdteyA0EY7tZoOB454aKzQUlCZNcJHJpEwYaERXu3XNFUVQ8XKNumaXiVYoXUb3UbxBzSWuByIkuxExMZw5ExMTlL5oiIqIPrVf0jPvN+IXmeErHGHvFdgWGzynCS+a6Q/jV8nds9+GoXxrpoiogiKIIoqICCIqKAiogiKKCIqIIgAKxEzOUcZOHbLf1GrFjRyvdy1+i+zwGF3azFM8Z7Z5/wBOPfu9ZXn4eDkvng3hJbrCxsP19UGTXW5HrJBC6BsZXazQdR89eUvt/wDHoP0wEHNMB9oBd/MMud3JbWHv7Hu1cPs1cRY2/ep4/d5fSMLSWuBBBgQ4QIPIg3LoxObn5MEBQfSq/pGfeb8QpPCXqOMPea6LLDDMZr5rpD+NXyd2z34adfGumiAiogiiiCIIiooCKiCIogiiogILRUTnGDQSdF7t2q7tWzRGcpVVFMZ1S2/htQAMXXwyyX1HR/RkWP8A0udtX+o/vz9PPmYjEzc92nh93OLoGxldrNdZqq/guz56IMfeDogze63IdZoIHQFjO7SaAzgvz5aINX4z5dq9Z4qajBOT28NIOUxf0MQslF2ujhLHXapr4w61SezSicY0dO8Dk9rXHtBbEYyfGGCcJHhL5N9mrDIVl29GP7k3ydE3SNWTPZuxrh/1Logg/oxC+P7STi5nwIwkZ8Xdq0LLHRzGS4/SH8avk6Nn4kNOvjXTEVEEUUQRBtaLw9jmggZCMSb19Ta6Kw1VumqYntiPGXOqxNyKphl7hRuk0GOpK9+yMLpPrKb1c1T3CjwkGPUwT2RhdJ9ZN6uaqfD6NuIHSBKeyMLpPrJvVzVPyazERLqYp7Iwuk+sm9XNT8msdNolqSnsjC6T6yu9XNT8n0TpNBjqSnsjC6T6yb1c1T8nUQkQY9TBPZGF0n1k3u7qHw2jbiB0gSnsjC6T6yb3d1VvhtGOItiOUSvVPROFpnPZz5zP7ScVdnxchtCDgAAuhd8FvW7dFuNmiIiPJgqqmqc5lm51uQ6zXtAOgLGd2k0BnBfny0QZe8DVBi4AYL9JoAAhE4u+kkBk8e0ZIICYwOHtpNAcSMF2k0FcAMF+k0AAQicXfSSD41ok0brV8JRktPpD+NXyZbPxIadfGuoiCKKIIgiK+za28CAcQtqMfiYjKK57GLqbeiNrbxc4q+0MT88r1FvQNbfGNop7QxXzydRb0R1cpDe4p7QxPzydRb0DXaSELZgntDFfPK9Rb0QV2kFzyntDFfPP+jqLejY+F0ri0mJJjDaC73RF+5et1TcnPKfw0cVRTTVGzDnACETi76SXWaoyePaMkEBMYHD20mgOJGC7SaCuAGC/SaAAIROLvpJAZPHtGSDKwzT1QY2bE78kCzHj3h0QMekN70C1Hg2j0QLViV+fJAs2J35ckCzHj3h0QfGuOtMcboBafSH8avky2fiQ0y+NdRFFEEQRFFBEVEAor7UdTpHCIaew+K26MBia6dqmicvpH3Yqr9uJymXxe0gwIgeRWtXbqt1bNcZT5slNUVRnDBeHptvBXQa52sO0V9L0H8Kvn+Ic7G96OTY2Y8e8Oi7jSMekN70C1Hg2j0QLViV+fJAs2J35ckCzHj3h0QMekN70D3bXsgNBGO7WaCEGMRh7ayQV88G8JIBIhAYu+s0BpAx36zQRoIx3azQCDGIw9tZIPlXiCw2eU4SWn0h/Gr5Mtn4kNMvjHVRBEERRQRFRARXL8MobT4kRDZldTojD03b2dXCmM/r4NbFVzTRlHi3L54N4SX1jluL4nRtdRn9ps/S9czpXD03MPNXjT2x+Wxha5priNWiXyLrNt4IRZdG6PeC+l6D+FXz/AA52N70cmwIMYjD21ku40lfPBvCSASIQGLvrNAaQMd+s0EaCMd2s0AgxiMPbWSCvng3hJBjYfr6oMmutyPWSCF0DYyu1mgr+C7PnogFsBbzv0mgNbbmekkEY63I9ZIBdA2MrtZoMawyDS0frAiaxXrfW26qJ8YmHqmrZqiWicISK+HqpmmZpq4w68TExnCLyqIooIiogIqIORUKzYfO4yOmq3ujsVGHvZ1cJ7J/bDiLXWUZRxby0GgFpiDnf8F9hRXTXG1TOcOTMTE5S4HilYaG2QYudfC4RvXH6WxtFNubNM5zPHyj+23hbMzVtzwhp18w6bceCMi0g3Ex9IBfT9B0TFiqqfGftDmY2ffiPJzy6BsZXazXaaav4Ls+eiAWwFvO/SaA1tuZ6SQRjrcj1kgF0DYyu1mgr+C7Pnogx94OiDN7rch1mggdAWM7tJoDOC/PloggbA28r9ZoD225jpNBXOtyHWaAHQFjO7SaAzgvz5aIOFX6kTGkb1hzXG6S6Om7/AOtrveMa/wB/dtYe/s+7Vwasr5qYmJyl0I7UXlURUQEVEEUBFQFWJmOBkiiuRU6m6kMBdmTcFt4PBXMTXlTw8Z0/tivXqbcdvFvmNBaGMEAOa+ytW6bVEUU8IceqqapzlkHQFjO7SayPIzgvz5aIIGwNvK/WaA9tuY6TQVzrch1mgB0BYzu0mgM4L8+WiDL3gaoMXADBfpNAAEInF30kgMnj2jJBATGBw9tJoDiRgu0mgrgBgv0mgACETi76SQGTx7RkggJjA4e2k0HxrVVa64bi/wBVqYnBWcR347dY4/8Ac2S3dqo4OHT+GEYHB2mfZcW90Jcj4dUTz7J/70blGLp/yhxH1V4vadp/Bc+vAYmjjRP07ftmzxftz4vk5pF4I6ha1VFVPeiY5ssTE8GEV4zhSKZwuSJE58Bm2hcbmn0KzU4e9V3aJn6S8TcojjMPvR+G0hvAb94wW5b6JxVfGnLnP6zYqsVbjxzcyr+FtB4zEejV1LHQluntuzteXCP21q8bVPZTGTnwsyo7tBELs0UU0Rs0xlENOZmZzlk4AYL9Jr0gAIROLvpJAZPHtGSCAmMDh7aTQHEjBdpNBXADBfpNAAEInF30kgMnj2jJBlYZp6oMbNid+SBZjx7w6IGPSG96BajwbR6IFqxK/PkgWbE78uSBZjx7w6IGPSG96BajwbR6IFqxK/PkgWbE78uSBZjx7w6IGPSG96CSPBDSPReZppnwXOSTJQBz5JsU6QZytixO/LkvURkhZjx7w6IGPSG96BajwbR6IFqxK/PkgWbE78uSBZjx7w6IGPSG96BajwbR6IFqxK/PkgWbE78uSBZjx7w6IGPSG96B7tr2QZVm7dAZg2PzQY1XPb5oMWY9z80Cs37IPpWbt0BmDY/NBjVc9vmgxZj3PzQKzfsg+lZu3QGYNj80GNVz2+aDFmPc/NArN+yD6Vm7dAZg2PzQY1XPb5oMWY9z80Cs37IPpWbt0BmDY/NBjVc9vmgxZj3PzQKzfsg+lZu3QGYNj80GNVz2+aD7oP/Z;" parent="bmn1_vXYTztaUBc_xjYz-88" vertex="1">
          <mxGeometry width="30" height="30" relative="1" as="geometry">
            <mxPoint x="15" y="15" as="offset" />
          </mxGeometry>
        </mxCell>
        <mxCell id="pPhfuKdi2IL3OO1udsqk-23" style="edgeStyle=orthogonalEdgeStyle;rounded=0;orthogonalLoop=1;jettySize=auto;html=1;" parent="wXt4vkHNkHTHuegMzTYd-1" source="pPhfuKdi2IL3OO1udsqk-9" target="pPhfuKdi2IL3OO1udsqk-21" edge="1">
          <mxGeometry relative="1" as="geometry" />
        </mxCell>
        <mxCell id="pPhfuKdi2IL3OO1udsqk-24" value="&amp;nbsp;Install&amp;nbsp;" style="edgeLabel;html=1;align=center;verticalAlign=middle;resizable=0;points=[];" parent="pPhfuKdi2IL3OO1udsqk-23" vertex="1" connectable="0">
          <mxGeometry x="-0.2286" relative="1" as="geometry">
            <mxPoint x="9" as="offset" />
          </mxGeometry>
        </mxCell>
        <mxCell id="pPhfuKdi2IL3OO1udsqk-26" style="edgeStyle=orthogonalEdgeStyle;rounded=0;orthogonalLoop=1;jettySize=auto;html=1;" parent="wXt4vkHNkHTHuegMzTYd-1" source="pPhfuKdi2IL3OO1udsqk-17" target="pPhfuKdi2IL3OO1udsqk-21" edge="1">
          <mxGeometry relative="1" as="geometry" />
        </mxCell>
        <mxCell id="pPhfuKdi2IL3OO1udsqk-28" value="&amp;nbsp;Provision&amp;nbsp;" style="edgeLabel;html=1;align=center;verticalAlign=middle;resizable=0;points=[];" parent="pPhfuKdi2IL3OO1udsqk-26" vertex="1" connectable="0">
          <mxGeometry x="-0.525" y="-1" relative="1" as="geometry">
            <mxPoint as="offset" />
          </mxGeometry>
        </mxCell>
        <mxCell id="pPhfuKdi2IL3OO1udsqk-27" style="edgeStyle=orthogonalEdgeStyle;rounded=0;orthogonalLoop=1;jettySize=auto;html=1;" parent="wXt4vkHNkHTHuegMzTYd-1" source="pPhfuKdi2IL3OO1udsqk-19" target="pPhfuKdi2IL3OO1udsqk-21" edge="1">
          <mxGeometry relative="1" as="geometry" />
        </mxCell>
        <mxCell id="pPhfuKdi2IL3OO1udsqk-29" value="&amp;nbsp;Provision&amp;nbsp;" style="edgeLabel;html=1;align=center;verticalAlign=middle;resizable=0;points=[];" parent="pPhfuKdi2IL3OO1udsqk-27" vertex="1" connectable="0">
          <mxGeometry x="-0.6" relative="1" as="geometry">
            <mxPoint as="offset" />
          </mxGeometry>
        </mxCell>
        <mxCell id="bmn1_vXYTztaUBc_xjYz-0" value="" style="image;aspect=fixed;html=1;points=[];align=center;fontSize=12;image=img/lib/azure2/containers/Azure_Red_Hat_OpenShift.svg;" parent="wXt4vkHNkHTHuegMzTYd-1" vertex="1">
          <mxGeometry x="460" y="10" width="30" height="30" as="geometry" />
        </mxCell>
        <mxCell id="pPhfuKdi2IL3OO1udsqk-30" style="edgeStyle=orthogonalEdgeStyle;rounded=0;orthogonalLoop=1;jettySize=auto;html=1;exitX=0.75;exitY=1;exitDx=0;exitDy=0;entryX=0;entryY=0.5;entryDx=0;entryDy=0;" parent="wXt4vkHNkHTHuegMzTYd-1" source="pPhfuKdi2IL3OO1udsqk-21" target="bmn1_vXYTztaUBc_xjYz-46" edge="1">
          <mxGeometry relative="1" as="geometry" />
        </mxCell>
        <mxCell id="pPhfuKdi2IL3OO1udsqk-33" style="edgeStyle=orthogonalEdgeStyle;rounded=0;orthogonalLoop=1;jettySize=auto;html=1;exitX=0.75;exitY=1;exitDx=0;exitDy=0;entryX=0;entryY=0.5;entryDx=0;entryDy=0;" parent="wXt4vkHNkHTHuegMzTYd-1" source="pPhfuKdi2IL3OO1udsqk-21" target="pPhfuKdi2IL3OO1udsqk-31" edge="1">
          <mxGeometry relative="1" as="geometry" />
        </mxCell>
        <mxCell id="pPhfuKdi2IL3OO1udsqk-36" style="edgeStyle=orthogonalEdgeStyle;rounded=0;orthogonalLoop=1;jettySize=auto;html=1;exitX=0.75;exitY=1;exitDx=0;exitDy=0;entryX=0;entryY=0.5;entryDx=0;entryDy=0;" parent="wXt4vkHNkHTHuegMzTYd-1" source="pPhfuKdi2IL3OO1udsqk-21" target="pPhfuKdi2IL3OO1udsqk-34" edge="1">
          <mxGeometry relative="1" as="geometry" />
        </mxCell>
        <mxCell id="pPhfuKdi2IL3OO1udsqk-42" style="edgeStyle=orthogonalEdgeStyle;rounded=0;orthogonalLoop=1;jettySize=auto;html=1;exitX=0.75;exitY=1;exitDx=0;exitDy=0;entryX=0;entryY=0.5;entryDx=0;entryDy=0;" parent="wXt4vkHNkHTHuegMzTYd-1" source="pPhfuKdi2IL3OO1udsqk-21" target="pPhfuKdi2IL3OO1udsqk-37" edge="1">
          <mxGeometry relative="1" as="geometry" />
        </mxCell>
        <mxCell id="pPhfuKdi2IL3OO1udsqk-43" style="edgeStyle=orthogonalEdgeStyle;rounded=0;orthogonalLoop=1;jettySize=auto;html=1;exitX=0.75;exitY=1;exitDx=0;exitDy=0;entryX=0;entryY=0.5;entryDx=0;entryDy=0;" parent="wXt4vkHNkHTHuegMzTYd-1" source="pPhfuKdi2IL3OO1udsqk-21" target="pPhfuKdi2IL3OO1udsqk-39" edge="1">
          <mxGeometry relative="1" as="geometry" />
        </mxCell>
        <mxCell id="pPhfuKdi2IL3OO1udsqk-21" value="" style="strokeColor=#dddddd;shadow=1;strokeWidth=1;rounded=1;absoluteArcSize=1;arcSize=2;" parent="wXt4vkHNkHTHuegMzTYd-1" vertex="1">
          <mxGeometry x="490" y="55" width="270" height="70" as="geometry" />
        </mxCell>
        <mxCell id="pPhfuKdi2IL3OO1udsqk-22" value="&lt;font color=&quot;#000000&quot;&gt;GitOps Operator&lt;/font&gt;&lt;br&gt;ArgoCD" style="editableCssRules=.*;html=1;fontColor=#999999;shape=image;verticalLabelPosition=middle;verticalAlign=middle;labelPosition=right;align=left;spacingLeft=20;part=1;points=[];imageAspect=0;image=data:image/png,iVBORw0KGgoAAAANSUhEUgAAAOEAAADhCAMAAAAJbSJIAAABRFBMVEX////ueUvm9fjQ6PDpZUvrb0e2z+rsc0sBAQGxzOnp9/nueEnudkb1rIftc0G40Ovk7fftcDzxlXTO4vHP7PXtbjjpYUboXD/5+/3oWTr+9vPi8vfqaUvF2+72+fzS4fLrbEv508f75NzJ3vDT5vL2vKn63dPj7Pf1tqHynoG/1u33ycLvhFvzqZD4yrvvf1TymXn97uniqpjsfmrrdF3yq5/uinnKysrwimPl/P/1uKTzpozq8fnS4ebsaj7dvrXZysXU2tz1vrXxoZPgmI7btrSnp6ffoZnjjIDlfm3zpYrkoYpAIRTfsqbnlXjpiWfoknPeqKKPj49ZWVltbW2AgIBLS0u5ubk4ODjl5eWurq7Wa0FgTUc5EQBTFAB1MhGhTy6NZlp7LwCPSS0aCgJzOiQwGA/BYj1fMB7PrK7nTy3sZijswb8vAAAWK0lEQVR4nO2d+3faxp7AhQ3YRipENgIDAds8nBgMmPiFk7jxI02bpImbNO29bvbe7W7vbnvT///3nbfmKYEjIWVPv+fknFggMR99nzOaGVnWX/KXzCObLSSbSbcjatl8+mCr0+/n8/k1Ivl8v7/Vvff0/wFq695Ws4SZFIGHS82tLxhz814nz9jIf0qlfqmE//Y5S517XyBlq9snEICg3+l2G43GUoHKEviru9Hpl9h3+lutpJs8j7S2SNPX8s2NLgQD/5ZEQccKgLOfXyM34ouBvIe1t5bvbzQgx1KQQM5Gt4kogSYfJN34cGltEbwO1t1MAr7X7RDIlCuy1cTW2ezOTMcgC0CTiLGTXkbAB5vY76peN6sm++gKzXQytjq4dY074VHIBlZkGhm3Pp+PMOI7tZU0kCRPYZz4fD4M2YDWvpZPU1zdRE3qNyLA4xn7qTHVB9CsSt0o9EcRCw0Yc9ZSokbUlo2QzD4/4waKyykoWJ9Ga6AcI1bj06QBt+JQIGXcWEs+qMLbXFIVCGxrM5KoWkrYUlsoBaoKxJ8KbQXfafCyNFPdUyigMimxmIpccENtaAF/vEn+gmzLOkFdxjDGboLOiJJEV9NEalVIT3o4HjOYstDIJ5U2HiAX1DWKGpVJdyplkMViZ0wAEQbRvv72EyudEY9ABiAu9ZMIqQhQ4StsthhiYR7AEEYQbxaNCADXmrokgbwPmOfSnHyY0WSshc6iEbs6QGKcrdDgcgc9LhrxgQ6QRtB5rVNiNKgRIS4s3MA8KAMW2KefBWhmLDQXlxdbmiDDqo7W5wICMWgRRtSFVDebsDMoAbLK8e4uyIveHSFifhGE8HckS6IfRaFALFpCWN304weEeUIEZC4YjQKDEBcRUO+BH+lqATfDm11mEv5dnaXCMjzuaLOphFEKGJIkINb55cWbN48ePXrz7OJyORRTiwgDarzdxb4cZShgoIUCmss3b8eu5xa/xuLlpq+fnYdA6hBBFd6ME/CB7IQUMJjv8tHYKzp2BkmOCMC8eRMMqel6NuJN/CATij3eGQDLy8+mbpHQCYiQ0n17GsRocMX47LQvp/pQwHL5Wcbl8aCs8IzezUUAowaxH2PKUGw0HPBiX+GTEHM5b/1yHkSQFdfuxUQoj8pshgCWz996Gj7RUJEeH5nVqCoRjjHGAwhyfZ//qVYY4IVd1PIpiLmv941qVAtxYKfx5P2WlOvDxirKjwwK1CHm3GczI6JgE0cJ3pRyfQjg8lvXzJfJ2DIisFQToi7YdKIHbElhBjuhqZIpL0+NFqpXYs57bUJUCBuxKFFSIf4BUy1aPt93iK5sx9Yaq6LEnPt2ZsRmDEpEKlSc0GiiFNAZr6+vj52ZlJhzTVpUXDEOJcK7ptioyQnLN8REnfWvoBzotKgqMeeafFF2xUInciXCkQtFhaYOb/m1CAgQdVpUCXOeKaIqSoy8j7EleiE+aAJ85hEtjb+iMtVoUaPEnGvIi7KdAk+MOCeKgRS7gGHQt3zpUYR1RjirEp2xQYmacBppYQMq0v7MKtyn+nIOGOFXMxKaXVFG7EdbnfaFcgar0BBmyo9YIgzToc5Mc57JTiVCUNhE2MWAcUZWoSkVnns+wX6gH+qV6NzMpsSlSEdPQc3dmVWFbzltOXuUcJYuBlXixWxKBLGmGxlhXogz6JBBhX6YwUIAx3MQOtOZlAjNtBQV4FNwLe7S6JhJhT+IDudMD746mOrrNrknHKZEOdaUojNTYKRczxclWpMXSioEvug4jrkTpSUs/jBT2gd1TWRm2ueNNFiFj0J6FLMQgrQ/q5lGFE3FSIprJYMKlzMBnd6ZCYtvZipsCpFVbiDdN6U4Y6hIyxeykd6JMGeKNRJhM6qk3+RnzQQb6ev5jNRE6BnMVEwYhW4+H01tmud7hjh6GWy0bMgK8xIaB21EJTYiyhctoSZFh0xjF5eBQzOzExZNXWE1X3ymIz7d6myJbhhspM8iIsyZehiSmQL/2YJNvLPAeV1rJY0bmox0zlxhJiyeGwhFM93Ay8Lyd1XkJltA518YuaGxb/+DdkDmDoSmDoboiIVlsvLtrgMa9xihf1H0gWm+k98znFX0ZRsINYbCTa7cSAvvGm8YYWk2I11enleFZkJTMJUcsRQRYX9GwjIJNCtY5iPchsL80DjoJpppMxrCtY7ohsZhYJjvV7azvmyHUWLC7fvcOfe3g9KFaKZwUDESHXbZJVHQMgaaG4fHI5ChhOo597dnJCTB9PN16CcLdNw4xnZUURobwrii4YNSMRI2YiFsiIT6fF9+V6OAFSB8e822muOp+LMq72YKNZERislCy3d+WMVNq9ayhycvDyu1qt9ekxqpAsFJtaPDk8Mj/6zq4bmWMRZCfzjfGErLl9kKamnleqeOz64PritV5llaQBJgKrWjqzb5zcnVSZXcqoo264vBNCrCpTDC8iUysOrRQLzCFWPUIRLA2std4aT6MTH36qkOMQ7C8IR/DgEr1Sv1Gtc1IyIGrGZ3lJPqJ/gsrRYXQKimwzIMotWjie4iuzR8yL6IfbD2nfanBwixcpSMDhXC8nNgi9UTw1Xq2Youoq5gwGPDWbvIvKvfqUqMI9L0g0ua8gW44RUTIIcoEAYDWlYbabGmVuBJEAIbrRwFXGdSU+0U2Wj1OuCsHXTWUQoIy9+AptS0PkhlUFOUiN0s8OevoaFWv5EREyA8Au3QRFFeTiqSEpEKa+3gs7JaJcZBWAoiRF6YDbnSRFYiUqHZdbEg1SueGC+hJh+Wn1dkFd6+//HHF+KliBJpOF3RqPD2/YefTsWz0H14vgDC4JoGtrXOn/ZiFcklfwyHDWamMNlXDoUfe49O+lkYU7pCKWMBVhpIeFqTzO1vq0Ru+aMVobBBgVRQPLktq3/nDyLjrknj33Fk/LWAyrv8TVVqKwVc/cAfJWbKEQpGesvOEsw7q4mm8RCa+4flb6tiWy9ZW1f5a2GDI46I3LDCf/wLO+ln/vB3sBr8dgGEAX38MmhElXfDv/mE/APaHZ4wpyTD9/r7cgzOqoiVWzy9pw2RkH9qUX5ZEbVh0CEuwrI5lg0rL/mPX7CTBEeEmq+8FAnjiDTcWJvyhBsSitlQ74cTPphuK9nQ98P3/OEBJDw0E0Y21iYVNZZEKOjQEEvbPGFO0aH1Ez1LSBehhBGNlwalfOiHIqE2H1q7vJWuaIrSHzW3BVvpiUAoGClakRgFof/cQnm4Bksauexuvfjw4RfpWoPgWArk9KeflbOOK0pRIxBG9txCThfckDDKh+o4hCLHFZkwuDuC5RBmC2FcUVx01YiKkAum8kwMWHhXgrp5RI6UjF8dhJ5Uryilt+iG3XxUhE0p1HBmel4N71qwUEqrNlSX6kdoeEHVbFV4WCq6YfMzCckT0r4aariMCINpbTfkSih1c5U37h7Ww86CpZ6UDsVHTyWazu5IiJ9y51slZdSbN1PgiKE9PUseqVFLb40gxYtlqVjRNFD7PuMpN5yp0NzahHO8u5Ij8qVpLby3TqpSf8z0vi6ayoKq9ZpgpIobdp52Op8/uU0zGYOPps+rYSMudTLy7Y8nroQORJEUKuUK+floRMtJxXlt+Bj3q5egJVXzsKCFg75mJCpbC0wz6CSpdygSRjdLWJibqJgp7EBlawGx/1pRIR0QrgZYN7otUtdJNNJGdDO9hUnQ2EyF4Sh0s43x9FgzXEoH9SvGtH+Cb4ugQSlXbES35KIlzBHGx3glnqLRBkNoZM9mMqJgQoMW6/hpZO00oG+4FOEcYaukTBoSu1DfIERd4Jgc0udr8oNgbKf6G7OLHwTUpAEMUYWRrikR5+rjY+JYBkpdWdkZ2aNA3ZNuglg9kuPNhDxcq0njF1Kc6US5LkiMppqlhxgxW7t/xTlW+7rKHgLrHuUTxErtaMCVNzvfkbtSk0dKpdlC0e5WI6yZ0S0AxoYKNFI7ur4aADk+ydb8B/n6uQoEET7GP0RnXR2fVOlZNWUqtKjCaNfMwCKcm2OqW6VePs1WaXuRcLMx9E/xobCpQhXprGpWecQtqbAf8e4RmjUl0jza8vJz7XSaoMkm4nQTTirfLgc/VkNLgaMEhLGmGaxEOCfqvqaxwZOi/BknvNzXTGVXJs9GvP5QWkOKD8rP2d46mW0R8v5M0/ekc7YzzrpKKE3xjn5XrE5eXdwl2+lrNPtyZRth3t8OnbfHQeJzwEnoHEdd1S3woWHEqLepgUrkfoIcFePp3JOgTaJO3JNXycaxsZm4mFu3MU2EhMr0UmXJUww7DUmeSO4gPxOz/CYyQjkXSmsPG/Fsv9fULecWRoefRUYoTYKWFzz149ksSt4YAx0UCvCLeZdbmESe5i2Fmbj2NkH708i7tzTiIbwIGOdeWoprfxplj6HC5mZBIDyNh1BeABzfHkNoiFj+OR5RWUB6VxHWrsmJohHnvsnKXl/wB/22nMdBqGz6EedeX8pGSugXudsdGSF3TfnnYgszWOAouLIJh98aQ7b4OO9aGtcMCG00umX4GtHZKZu5UNavAnb+48CUKPXodoYFGvmnlmK1USjwaU3HhGhY2eX83TJsGuU+0iLa+2W9BlG5FvPel3j/UuXOEsIbfYP/sWkd6BJJcW9J67k23RpDu49ZXPvtMdnSuCLxRcP6Q/ufl5b1UN28rXhj6fOLQ7YcUH5lIXvQ4i1MFSWipCHs+sER/iecyrU7Fi3V9l5Z1i9a68XdQ3WH1gXtI4z2glajDUQ0LFa3f8XTgB57RXYHbLcIh0n/S3tLUPdQBUQzLxbyvpKWZsNy5IymDuLvq2Ti6GjddYtAXG86gn/f/rc2NMHuobrF/uL280Z7naypAXVpydhB9Ofj1XdHvce9HTJu/OFXPeGbsnrxRe7Jjjcy1bx9ZcnQQbS/X32hu8zp6kft94vPNIAL3VcfvxtBg2hYj2//trp6ql7kdvVf+pXRrkq4+Nc/bGkRdw3dp4+rGsTT1dX/MRBeJA+IERVfNHWB7f+VZx1am3Cu3u96Qq+t+ODiAfVvKbk1dC7sX/EMZxbqb9GUWYORZrxbka+QyHtmkC/Kr9K5NXby6fzYn96/ePH+A/lLH0mBlQqECb1IBwp635NYwJn6EDDWqGK6HQJhYi9DgoLe2SX0iI2bXtn/UgFNKswUecAk39lF3rvW8S31zLRtWcb+XQH8w/hdh3PBTqLvXbPwu/P8lx+emfcYUu3U9E3QAT5jFtpP/i2P6BWyG+StYmf67RG1iB/NN2P/jFpoPvn3H+IhRvoOy7OgDWocHvH7gG3P7JszosBUvMOSvEg2j15jefYqaMzJ/vh9aJBBt+KHs6U0vYfUorstgaB69jp4VM3++Nsff/zx2+/B+9Y5T86AgZZS9C5Z/33AZ6FPEG0kwd8pvj5L2/uALfJO53wnkieIxUdoKUx6FEgEvVT235EQvkvBK2R1At8d/y4CwhX332upfLc6kKfNd1/PPv/CwLcCCFPKB+Xq69l2wArgA4ShixsSlNHXM27yZeZbWfFCZv4nKte5mTcyM/EBwhlWRCUlA0o4P+OKL17oYprkJDuw/YbekW8l44av+UpKBp8G4xWhsfPzgXPs4PUpSUq2OgDdpzkZV9Tvh66ISkpOKtXBjS23ORByRfvd0HVUCck1XE2K34EgN1xLqXyJ2xekmsKUiBZWVHf2HEPrec7gT9EEd9P6lGSkvnN8fYim2FcHQyeQwiy8ctFU9srJ9VUajLU9uD6q1qpky7Lq4CFXes/DN5YJ0fT9WuXl8W5y+b9+dZL99OlTjdvP8dNOzye0p3Y4GlGfPeUIufn7ABL8wtH1DKvF45FJe3B8/fKoUqsBIwWtObZG/itYxut2uCLZ3eBG6XJw1UUVXvPo8Pr4KkElMqlP2rvXlaNj0BSO8GadNjrc9ewp+3KmOBqcZLPHu+0UkGlkhz2bcQ7WpfEYLRu9HXtsDMtNzCRnEv8ZqTPUvh9IL/b60CdMYS7kpM2eIDoP5yB01v0gnOruIYg9TIfF3t4chAd+EHbT6X9U6j7hiBLaxq3a2SfOnh+i3BR3Dy2e0N2hQ/y2HHJ8QvraQOeVH6JSTmj5Dd19Qt/yuGcidGh8cZ74IcpNGiFE2FNgt80IhwZAEI0YYZsS2k7SCCHCnpF6E6qg4mMToU3jizOcsFcKjpNGCBFWfXl1RtgzEo4YYZ0RTpNGCJF1miJca0iaX9wxPk2j8aU4ZA7srCeNECIsRdiM0N01ENoZ6n3Fh8yBnVdJI4QINU3gTrRMcduGCQx2ZuIT0rsA1JluoVj2PvuvNzERjqn3AUKa/MF/0y0sOt74hHUjoUUJH7MQVewljRAiLDoeWI8poRVO2GMhqjhKGiFEaHQEAYOq0w0gJN4HCGmISnn30CcE7kQI7YxlKL2Br+4zQj/yJo0QIrS+BG2mhNMAQmKbwDQfs8ibNEKI0C4waDNxSZDCTYRT6xUj7LHImzRCiND6ErgTJXxlGaa7AUKSPl12PzJpfnqIhGY44E6kzSCFGwj9jALuB3XgtHcPrbrvTiPcZhBz9GvaoP32GCFx4NR3niyLzOkC7kS0wuU6hCAQjhghceDUd55YBxG4EyEEPsYR2pzFgqqAfmeHOjCIr2kXEjc9i2s9N65Y9IecMs4etU3gtcSBU989ZF1g1yfcFQjr/mx3QEhsE6Z5j1pu2gVbJChkKKHXtvyRU+BmvpmCPDJRCPeSBggVrC/oTsQCQczxCQHUkJmpM6Sjj7CQwSHKeZI0QKjgETboTtTH6pY/OdovdTIoUxKbhSP52IFT3wGmHUSfECY44bGL/2gDdnYzjBCbd+o7wNRKQSKw8CAM9EjfMGFN5vKEWHOwGMWmnP5I85AVMkRZ0CPZgyWU7VioAT178gck7LEiL8VS79El6dDsCOGUI0SRktksHLDAtgkJWa9k3EtpaToZ3XhFOiQIbQ03Gf6XEaJBmBH/F7ZN1KGglY9d9G5GqetDtR/vc6vtnSJsMc51UG20d4s78OwRBSTELooI6y53AW9/mJ7O/mR04DLtweDp7SMzw4TQr9jjT9w14gkxPO7YT/Y9v+Cxi653kAJVTkZ79p9/ei4n4z0yloRtE4YTSgjjqmX5Q6Mj+hHNETtPbP5S3p9/FpOmrJuDwi4pyHa4QVRckg25gUPyLc9skgE/kaz0SI/WtnxCMtpLQw0aGiUdRjftA8GSTB7bNG1Ak6VIZKSQG60Chkn/sHvJO91s0h4N910SeBwPqUYaZar7I45Aep5DQ8v+q9FuWm0SSR3CeZ5bdNAKNRDyp3jwkzgeG6EgoYa4ZXvqsTOKnjfe66URs77be8LBgZ7QeLpHzW5SFIho/8OfOjPp7U3HZOUewHQ9L5M6zHrdHPLqYwLEAiZ1RHtsPinggmmTES1Vigfs2B5NkF9aCFWlPXRcWqvy44RjVn07w7Q/qDBKfad3UPSruaJgkfV91qFyvOJBb+eLMUkq7d5NEYYdVmR6crdv6MPD4OJOe1+MLkFYXUdRlQpIAcWhms0nQ3Cc+xaIoOsPUxZANTIZDW+mN+uCDHumonO3NzwQvgrO3UtBf+Iv+UsWLP8HKMKnEupSbkYAAAAASUVORK5CYII=;" parent="pPhfuKdi2IL3OO1udsqk-21" vertex="1">
          <mxGeometry width="50" height="50" relative="1" as="geometry">
            <mxPoint x="5" y="9" as="offset" />
          </mxGeometry>
        </mxCell>
        <mxCell id="bmn1_vXYTztaUBc_xjYz-46" value="" style="strokeColor=#dddddd;shadow=1;strokeWidth=1;rounded=1;absoluteArcSize=1;arcSize=2;" parent="wXt4vkHNkHTHuegMzTYd-1" vertex="1">
          <mxGeometry x="730" y="150" width="240" height="60" as="geometry" />
        </mxCell>
        <mxCell id="bmn1_vXYTztaUBc_xjYz-47" value="&lt;font color=&quot;#000000&quot;&gt;NVIDIA Operator&lt;/font&gt;&lt;br&gt;Support fort CUDA Drivers" style="editableCssRules=.*;html=1;fontColor=#999999;shape=image;verticalLabelPosition=middle;verticalAlign=middle;labelPosition=right;align=left;spacingLeft=20;part=1;points=[];imageAspect=0;image=data:image/png,iVBORw0KGgoAAAANSUhEUgAAAWgAAAFoBAMAAACIy3zmAAAAElBMVEV1uQDu7u7///+fzU/F35fc6sOdIHbIAAAN1UlEQVR42u2dy3bqyA6GybaZB5PMT/kyN7e5Y2DumOT9X+UQyMUu/SpV2SbJ3i1W9+pFB+yPcl2kv1TSLL2+zOL6+ivezhRaoRVaoRVaoRVaoRX6X4R+/2/y/v//ircKrdAKrdAKrdAKrdAK/U9CqxOg0Aqt0Aqt0Aqt0Aqt0Kqaquei0Aqt0Aqt0Aqt0Ar9m6HT735NYU+/HL75NQV0OfveV6TQCq3Q9G2lLa3QCq3QOnsodA96vD2dKLRCK7RCK7RCK7RCK7RCqxPwn4OONpfX3wL9+LIvn772As5vN78ZOknN4/7SM+r+X4uXzS+FTtJ3Ygqdnv92KH8f9LkfdFqzBj/JvJS/Dfpx371IjT58/l3lb4I2+/5Fau7DN2rtIdAn+yIsdGpOvwO6oK1XO75blL8AGjVd7fzu/oehmXZzQ6cvPwqdMj20FubHh/LHoBPDPWgB+vzNamJobwOaH1K1bHzvfwY655+xB3R6+gnoB8dFfKDT5bdDuxvKC3rCtvaDNu4uWX/FvDguNV1b+0AnbuZos91sovNrszkcz1MGe6nk9I3Qjgkr2h7Pfac7RDfHRcpdaqoeIkM7Jtnt8Ww3L4wtIWxb7vdPNPPJ0BxzdCZOGd1jm4Q/tCmhmdtER7dYc2TGtCm/AZph3iWSwhS1EDqZwlSVoCFz1PrIYscEamjFzaFPjmYWtbxtYtCV8xtDo+Ugek59BcioNejKp5tCL7nm81VNoyeDrlyNhublGGQjrcIEyKhGVx47GHloOGLqYNW09m2OSaDRjPoULvVe+7XtBDW3gQYT9Pn+Q/TpZ0OdsXErIwcNBktUm0ExTB9t3ftucQvoJWQethMQJRQ6WU4PDRaAN+aB2xdxQn31pJoaGgzCJzNiz2WX0u8WU0PTVliZURtFK9C1smmhT7ipxuxutWAQV1NC0w4dp2O35M6DkXy3mBCaLrJRIoRtnl3ay2vD4+/AHL+cDpo+tdal9L3uy6ck/UAq9qWgM3S/W04FTX/+mpMn33a4qADJaKRRQqHzaaAT1KEx9Blvg1VTbDDPvaapIfY0naGjlrG2HytWFsOmxRN1ZIpJoBt8KwrdVZ2Alndil/O+n9tMAA06B/Tz+sIvEiCRyTynv3+QpNCHBp0jQR611ZBQNc2ZLQPrUsvR0OzybWkXlY/UC6jfFilbRC5HQmf4gdoiKtk+ZvTpB2iDTKAodKFB/2qpr57QeZiBBo/+3NvI8KhGQYPOAeTaB/+dADCHrAwd02Og6ZcjIIw/hGxfgPm6nUAG+YIGnaOmT/whbM+FXnROJfdiOHQD1295bLk3inJgfZEPNwOh0SCuCQcjDTmg6T7LHGyrDoQGnWNOOLjly7UlR4U+sLnRDIJGC1NLOKoB+4j0Ec7ph/NB0AVnSXq1h3Pzk3aQNvVuDqc9DXhaWzWEVsKbn7U/PKeGV0VIp5pTNSIfAI3MBFszQKPlffOtvGx1sUEqS9ge/Q9X4dAl19BOETV67njj0TFlg1Qq1NQjVLILdMY29OelwTS+TUxPQtgmnGr8gFrECjQqA6HRTGZHYj5A/aave8Ss1F3JglMWCH3PNzQ7mHryXDnrUVMvOAeuhf0LyyBoNMLW1o0bOiEihWnHbd/YTb2m0PdB0GC6iyTlN06wLFYzQVt274qotFeEQKMpcm3duESyAoKOGGjSvWo61TQB0GiGTPo3zrCCgQTIFRMel5FZj0Dn46Dn/RszSxpWTRMsRxn7HrSlswDoe2hLdG/cCD2+B32Hoe3FI6bQZQB0hrysXhivuJ9Z9r8MoMk11mM2BqIZHbV3feiGOjQuUX3tM+XNqMZeBU15gkxaAMvSBR2BHesc6CkWdB60ItJWiLqhAwmydpxRCDX1t0vZZa6CoBf3yMLjoVvpwBn1tzM0aizvM9BzyZC19IXViMqn7QbaLU0NlzWBbgKhwUjsYi2Bne2GXlvQFIi4W2H++Bma+svzrkyYk/4uQVsiQQ6npz70fTB0A0biF9ajpObTX937K1g0iJ9vwr1x6up0tU0LyaN7fPQPzpGKiTf+v3DoHIzEDnRlW8Ii9Nwd8ljb0KF7GBfdo6QjsYN1bw9SOVqsI4s10EroQwc29AWaLi9xV0XOQqe8blvmyFi3ocsB0AvyS6MuVkGnDwn67nPboOIaugMd2tBX6NwpfYORKEFHH+NhyTa0a5H30/LoktWFpiNRjICs33cCSuQVWdDhm3IXaPoQe/YDHYki9J+r3QIW57tUXOQ9W3rJdTwwmGKfWNPLVAzlP7LnMmD386rlFWB56djEZD6TI2taxq6/s787ZEv/XeqlnZoPcKh9oNfMtiaJd7kfDt3MGIc7pavsHx/oGAerzu3vDoqdeIfOkPfyeek8xEf86F/wKA5x1ZoR0MatT9ud2gN6jdpwbo+HYfFAH+FAFdOpU9ipPaDvsHI1UThQmkLjcN7dvsjcM4DvTHs3ceBVznRqNFyiodCJV4hbVPpCAy+fx2qHQZPzBFhUqpfe0A3wbrnZ9M8g6MgW7/ACHhtxSvmEzvAORop6TzwIeu0nSLdy8P1XMCFeyfFf2wHQkZ/0fwmaEs6UfEIzkx7+650Jh669FMd3b99N/dXSSzjpffw149dLP+jYiPGh3T2G3A+aPq3eCRI0tYRAt5ZMyo3Cj+eQi/Y0jtrqBak0yJT3z3i1ssU7bN21XqeIO9AZWsC4vwZCR37i3dx4nSLuQBfuO5Vg/vKGrr0CPPpRe/yhEmdcXk/6blhpS4YmimPGjUKvU8RdaNQ/OgkcoL/tBR35RVoR75M9SD1zxMdFDh0oDoAm4l3FrYWWy8xM170AWdA/+PDZ1ht6ZaszGb8W2qeISxEa9I+utkm9EC/o2FZncOdAyjdz9rkHbWj/cESL1Z7QrV8Yb42P+uYSNOgfjui52A96ZUtKGTNFM+eTlxJ0xikJcHKtfaB3duyxq3PAYx4nATrllKYE2dyRB3Sc+p1cqA1/ErwSoBvGKU+gZfRxYICHjlo7ipM7uOM6c1+6oXPG7Eqwe3NtH8dh99ZaL5jD11HihC7c0NTKbHvXKmlDutIK1PbUy8cyO1MyZJw9zQivdz3LPYNzcOmc7LoOZcWu3+6cZpULelFgu4GNntvx0B8JNTocJ37mcGcL6w9fckqugU4071CsWM3l2Te0amXklHdOaOqcxcIRyx2GBsf5GVl3bsSUd1ZT0kOUcFPQ1Vo7BP2WUcO6MTNDo6PwdsxvPhOgM0GfpRJLTLfknuhBcc44ro0Ibf9cCm0kJZw22NOeNjO5ccUt83Kq2mYmQQNVT9Jn626e0+i4AIfMOTdVONxtoEKCjmADibZ3rYbagiY1r4f9fnt4xRGQrGvdyhkRwSFJcNi9oluZ7njZy9nIz7h1cGN2V3Ytp3FESTt8TuhLkclSDki2nedy7slkOfOCBruK7uwfUrbNk8MRE6CTfOYJTX2L1JlnRchrenI5YgI0tLBwqgzySUvbtTLauKFPTmVBgK5m3tAZ58HgYy9OaDZF3s4jn+pJ1j0c0VLklFj3I/zZLXLwmczQrtyTXIQCk6brnrGNu3pDJUM78mY7PFnBzWGhuabufXgvQCeO7NOfOaV4aD4vFpcQbYmHDU5Mx0AXe5e8J+ae5PddOGiwdqLj7KUD2pULuRararj2itjUcxmUiuz8qtfcEwjamQV+JZcCce1v8fnySjQWwVDbI+hHZy7QnZwj17n/yUNnaNUFw+UM+NQ5KP421QpJ63ceiX2r2SBo0NQrPJumZbQ9Pl9DDDxqX8Qe2Yir2UDonLd+fdMpesnVafA5YVcOyMpzRQiCjuWU4mIyPRd0wQqFw6HjRISWQyJDs22uzCjobSqmFPfIaumEhodvzQjoXSKmFPfJxOlOxpp7qLcB0LtUSimeeuXhdNcJQDu9UTKwsFJUywa0X3JZobgBeljxMGggopK3njm1BWi4FRUPgeaPwn/VUalmk0DjoJ1Pan/oXWIkaP9kuCK0KR0mvO+xvLdMypICHZAKVy7YkTEdNKClr4Kkc8QHldjxqDLS4NiM1Bc6fk4lXTSwBpNPaZSSbT6fBMNPqSjmhhZ88YEuWBw5//TRQ60zodUDvIrQcKejP6oYlA5kEXpAeS6/yjnsKLli49lj8+xx5UHFRzzL/fCT2vYZuZOzzTFJfa5cVLObQTt94+2m99fN5m0/wHjVHRtWAs0T2r1c1YvF6zWF7OvVVZR32bi6Y1NCm8QpvSxMkn4FAsrbKNe3g+sFBBRWcupFHqoAVqduC+2gHgBdjKnsElLHNp8OelwliaDiu1zprVDosWUTwyoGhyf5A4lcx1eWCyxzjJdcf+jUTFEMLxAaGze+0MlE1UuDC0oja90POp2s5GB4FezUO4Osldl6uqqlA0p30y7iAT1pWdtB9cbt8ShCP05b93NokfRew7nymibpYvJqtoMru3efNwdtzv/eorj0mHL0n9gMdPp4o3LYY6DPc9ieh3483KyA9/gi6We2awxE+mlPP74cblpxfJJy9JfaF6+X1+Gw35SzG78mgb45pUIrtEL/o9CVtrRCK7RC/yXQY+zpIeFACq3QCq3QCq3QCq3QCv13QC9eXo6Ht38O76/bvb2+O05hT3/7awrob3+r0Aqt0Aqt0Aqt0Aqt0BL0BPb0t79VaIVWaIVWaIVWaIVW6H8SWp0AhVZohVZohVZohVZohVbVVD0XhVZohVZohVZohVZohe68/T837HrVswSzdQAAAABJRU5ErkJggg==;" parent="bmn1_vXYTztaUBc_xjYz-46" vertex="1">
          <mxGeometry width="30" height="30" relative="1" as="geometry">
            <mxPoint x="15" y="19" as="offset" />
          </mxGeometry>
        </mxCell>
        <mxCell id="pPhfuKdi2IL3OO1udsqk-31" value="" style="strokeColor=#dddddd;shadow=1;strokeWidth=1;rounded=1;absoluteArcSize=1;arcSize=2;" parent="wXt4vkHNkHTHuegMzTYd-1" vertex="1">
          <mxGeometry x="730" y="220" width="240" height="60" as="geometry" />
        </mxCell>
        <mxCell id="pPhfuKdi2IL3OO1udsqk-32" value="&lt;font color=&quot;#000000&quot;&gt;NFD Operator&lt;/font&gt;&lt;br&gt;Node Feature Discovery" style="editableCssRules=.*;html=1;fontColor=#999999;shape=image;verticalLabelPosition=middle;verticalAlign=middle;labelPosition=right;align=left;spacingLeft=20;part=1;points=[];imageAspect=0;image=data:image/svg+xml,PHN2ZyB4bWxuczp4bGluaz0iaHR0cDovL3d3dy53My5vcmcvMTk5OS94bGluayIgeG1sbnM9Imh0dHA6Ly93d3cudzMub3JnLzIwMDAvc3ZnIiBwcmVzZXJ2ZUFzcGVjdFJhdGlvPSJ4TWlkWU1pZCIgdmVyc2lvbj0iMS4xIiB2aWV3Qm94PSIwIC0zMSAyNTYgMjU2IiBoZWlnaHQ9IjgwMHB4IiB3aWR0aD0iODAwcHgiPiYjeGE7CQk8Zz4mI3hhOwkJCQk8cGF0aCBmaWxsPSIjRUUwMDAwIiBkPSJNMTcwLjc1ODAzMSwxMTEuNjEwNjg3IEMxODcuNTgyMzQzLDExMS42MTA2ODcgMjExLjkyNDQ3NCwxMDguMTQwOTI1IDIxMS45MjQ0NzQsODguMTI5MjcyOCBDMjExLjk3NDc3NSw4Ni41ODQ4MjI2IDIxMS44MzQ3NTIsODUuMDQwMDUzOSAyMTEuNTA3NTY1LDgzLjUyOTgyMDQgTDIwMS40ODgyOSw0MC4wMDk4NTYgQzE5OS4xNzUxMTUsMzAuNDM0Mzg4IDE5Ny4xNDQzNjMsMjYuMDkwNDYwNyAxODAuMzMzNDk5LDE3LjY4NTAyODggQzE2Ny4yODgyNjksMTEuMDE0NDc4IDEzOC44NzExODQsMCAxMzAuNDY1NzUyLDAgQzEyMi42Mzg2MTQsMCAxMjAuMzY1Nzg1LDEwLjA4NjUxODMgMTExLjAzMjM5NCwxMC4wODY1MTgzIEMxMDIuMDQ4NjY4LDEwLjA4NjUxODMgOTUuMzc4MTE3MywyLjU1NTI1MTMxIDg2Ljk3MjY4NTMsMi41NTUyNTEzMSBDNzguOTAzNDcwNywyLjU1NTI1MTMxIDczLjY0NTAzMjUsOC4wNTU3NjU5NyA2OS41ODM1Mjc3LDE5LjM2NjExNTIgQzY5LjU4MzUyNzcsMTkuMzY2MTE1MiA1OC4yNzMxNzg1LDUxLjI2NjQxMDUgNTYuODIwNzE5OSw1NS44OTI3NjAyIEM1Ni41ODk4NjQzLDU2Ljc0MjMxMTUgNTYuNDkwMDkwNiw1Ny42MjIxMzM4IDU2LjUyNDg0ODcsNTguNTAxODA2MyBDNTYuNTI0ODQ4Nyw3MC45MDE0OTk1IDEwNS4zNDM1OTcsMTExLjU1Njg5MyAxNzAuNzU4MDMxLDExMS41NTY4OTMgTTIxNC41MDY2MjMsOTYuMjUyMjgyMiBDMjE2LjgzMzI0NywxMDcuMjY2NzYgMjE2LjgzMzI0NywxMDguNDIzMzQ4IDIxNi44MzMyNDcsMTA5Ljg3NTgwNiBDMjE2LjgzMzI0NywxMjguNzAzOTc0IDE5NS42NjUwMDcsMTM5LjE1MzYwNyAxNjcuODM5NjY1LDEzOS4xNTM2MDcgQzEwNC45NTM1ODUsMTM5LjE5Mzk1MyA0OS44Njc3NDY2LDEwMi4zNDQ1MzkgNDkuODY3NzQ2Niw3Ny45ODg5NTk3IEM0OS44NjQxMTEzLDc0LjU5ODc2OTcgNTAuNTU1MjQ1LDcxLjI0Mzc5NjMgNTEuODk4NDk5LDY4LjEzMTA2OTEgQzI5LjI3NzgwMDUsNjkuMjYwNzU5MiAwLDczLjI5NTM2NjUgMCw5OS4xNDM3NTA4IEMwLDE0MS40ODAyMyAxMDAuMzEzNzg3LDE5My42NjExNTIgMTc5Ljc0MTc1NywxOTMuNjYxMTUyIEMyNDAuNjM3NDMsMTkzLjY2MTE1MiAyNTUuOTk1ODM1LDE2Ni4xMTgyMzIgMjU1Ljk5NTgzNSwxNDQuMzcxNjk5IEMyNTUuOTk1ODM1LDEyNy4yNjQ5NjQgMjQxLjIwMjI3NSwxMDcuODQ1MDU0IDIxNC41MzM1Miw5Ni4yNTIyODIyIj4mI3hhOyYjeGE7PC9wYXRoPiYjeGE7CQkJCTxwYXRoIGZpbGw9IiMwMDAwMDAiIGQ9Ik0yMTQuNTA2NjIzLDk2LjI1MjI4MjIgQzIxNi44MzMyNDcsMTA3LjI2Njc2IDIxNi44MzMyNDcsMTA4LjQyMzM0OCAyMTYuODMzMjQ3LDEwOS44NzU4MDYgQzIxNi44MzMyNDcsMTI4LjcwMzk3NCAxOTUuNjY1MDA3LDEzOS4xNTM2NCAxNjcuODM5NjY1LDEzOS4xNTM2NCBDMTA0Ljk1MzU4NSwxMzkuMTkzOTUzIDQ5Ljg2NzczMjMsMTAyLjM0NDUzOSA0OS44Njc3MzIzLDc3Ljk4ODk1OTcgQzQ5Ljg2NDExMTMsNzQuNTk4NzY5NyA1MC41NTUyNDUsNzEuMjQzNzk2MyA1MS44OTg0OTksNjguMTMxMDY5MSBMNTYuODIwNzE5OSw1NS45NDY1NTUgQzU2LjU5NTI1NjYsNTYuNzc4NzkxNiA1Ni40OTU1Mjk4LDU3LjY0MDA2ODYgNTYuNTI0ODQ4Nyw1OC41MDE4MDYzIEM1Ni41MjQ4NDg3LDcwLjkwMTQ5OTUgMTA1LjM0MzU5NywxMTEuNTU2ODkzIDE3MC43NTgwMzEsMTExLjU1Njg5MyBDMTg3LjU4MjM0MywxMTEuNTU2ODkzIDIxMS45MjQ0NzQsMTA4LjA4NzEzIDIxMS45MjQ0NzQsODguMDc1NDc4IEMyMTEuOTc0Nzc1LDg2LjUzMTAyNzkgMjExLjgzNDc1Miw4NC45ODYyNTkxIDIxMS41MDc1NjUsODMuNDc2MDI1NyBMMjE0LjUwNjYyMyw5Ni4yNTIyODIyIFoiPiYjeGE7JiN4YTs8L3BhdGg+JiN4YTsJCTwvZz4mI3hhOzwvc3ZnPg==;" parent="pPhfuKdi2IL3OO1udsqk-31" vertex="1">
          <mxGeometry width="30" height="30" relative="1" as="geometry">
            <mxPoint x="15" y="19" as="offset" />
          </mxGeometry>
        </mxCell>
        <mxCell id="pPhfuKdi2IL3OO1udsqk-34" value="" style="strokeColor=#dddddd;shadow=1;strokeWidth=1;rounded=1;absoluteArcSize=1;arcSize=2;" parent="wXt4vkHNkHTHuegMzTYd-1" vertex="1">
          <mxGeometry x="730" y="290" width="240" height="60" as="geometry" />
        </mxCell>
        <mxCell id="pPhfuKdi2IL3OO1udsqk-35" value="&lt;font color=&quot;#000000&quot;&gt;MINIO&lt;/font&gt;&lt;br&gt;S3 Compliant Storage" style="editableCssRules=.*;html=1;fontColor=#999999;shape=image;verticalLabelPosition=middle;verticalAlign=middle;labelPosition=right;align=left;spacingLeft=20;part=1;points=[];imageAspect=0;image=data:image/png,iVBORw0KGgoAAAANSUhEUgAAAOEAAADhCAMAAAAJbSJIAAAAilBMVEX////HLEj99/jDFDnGK0bGJkTKOlTGI0L//P3GJ0XDDTbFGz3++vvFHz/78fPEFzvOUmbCADHptr756+3mrLXkpa/y09jag5Dqu8L03ODQV2vSYHP34+fMRVzciJXWcIDAACbYd4bux83JNU/UZ3jwzdPhnKfNSV/ahJHej5zKP1fVa33inqjAACQeVamOAAAFtklEQVR4nO2cbXPqKhCAEwmSgDG+xHdtaqL1anv//9+7RiCQ2NoPJ2e4y+zz4czoTM/sM5CwLItBgCAIgiAIgiAIgiAIgiAIgiAIgiAIgiAIgiAIgiCIr8zzU/r+zrcfG9eR/B0GV0ZYGIYRFaTYu47mL7C5kSjUpOnCdTy9s0xpaMNXriPqmXmShG3I0XVM/bJLwy7cq4laTpVWwpgezIgsXYfVIzv1EKbD4/Ei1BuH3gau4+qNsRIUxd0pXmRKMftwHVhvLLkctIn8uJ5KxSjzZumfEfn6XKvPa/k5ZFunYfWINmyGbK1Wf567DKtH1p0xDIJcztsonDsMq0eW0pAezFcfUlH84y6qPhmEclIKK4+5Smt+dhdWnxRMpWpv5rsV6Y4rZDY6pyFX82WRPb7xJHk7CqU4tVb5nXgkb368bAYHvXmyEu74s1Zknw7j6pGN3j5F1rQcbOstBykdxtUjS66y0YibZXF0uL+CkuHIYVw9Uuo9RTSdNV+Oa8Xs+uLPILFuCjXCzMv5XTGa+vGyuaeneqImwkzUeUJDtnMYVa8szLNo9vfzitoZK3AWRFczhFHcJzSpxg6j6pUr14qh2f1uwsSbl42lSKmpey+nCfenCm5GkVmKlE0cxtQzK/0s0ptZJErBZy/+BhiNIhua98t6WvlTWwyKRvFmKb77dJJR6L0UOxjF/N2b2uJ923TSiunOZN25N5nNnbg5qckK860/C0bNRSv6dQRlMbgwvSP26PFrMa6UIju5DqV/BnH977xSdQ3uSRXDUIZybV+qHTH1KGGrOW85V9mL3ktxnw6DxytOI6Lzs60sMaaeHF7U5Kxe6hvDsxzEKHMaVI/sT3Ln1BgGEzmIU0+mac70+UxjuJDZm/Bi1R+f9OmMZbiRg+pFYX9ZmZ4hYxjIBcOH9eLLbmuzDC+PVT85xA5j64N4xU1fYstQHp2CLyaOt1kYfm+4ehhGwA33h07b3vMYDkEbbhIW/mion0PI52tlqpsRkzR6Mmy3g4Hk3AjScH2LflgPi1f/xf+bc6YF09s+GCbe5TRLoQXFdhTET4Y6LwVbyNg0DcGPru4nQ9UNFiUug/wT9lXTYvLohXoyVPtDAfVobXTTywSXCl3DGfA9vqn6ki/1Tdtwo1I5sKf4bzpVa3rZ2oZ7XWuD2rM/0yeh5nZMy7B5SKFuDjeqWz0URsA2nDH9FkphNtPEFz1CVrN6Yziaf+oRDqGe/a7UQ5hU1ghpQ1okzW6DAD0XLdUQRa1sZVSpmWs2GwLoocWA6iOJ1m2Dkb3RlyMIVDA4qkko2jfw4o5fxKHe0FPp5tPVrVK0BBmBep9kpDqeO9fvxtdWMSMhO7Cn2l/qPUrsq2njBROR7XcAukrcGSfqWNAqgsZfQ9Iav+EMcH/QSj1t5jZMPKsy+xpwUuWQK8B7dTwhmusxecXb15wJ6NqhXin0rbR4NuFP17gBz9B7xq3eJ6pNphxmNOwC21Dd4UqG9Yf1pTV+7LleCo+9HsL7WnCecHv8UnoMu/VSgFzli5Rug3Jrz8+ITd/2gQdjOFB7ivSj4C0/UWxM5g3Z8KPpqrROY6JUyF9r8cHw1l0Y6vcLWan81APDJXn24ybB9sCw6JwURowU1iYfvuG8O37i1No/wTectSYpnX52jpTgG9qTlJLdU9soeMNB1mxxWbb95kgQvOG6udHEd9/+UgJ4w6OcpJQffmhrBm/4yKsp2f74SxfQDfekLsBMXhSYoBuuScJv5asCDHTDt+lvBULohrtfC6DQDX8PG7rh76AhfNAQPmgIHzSEDxrCBw3hg4bwQUP4oCF80BA+aAgfNIQPGsIHDeGDhvAZpR500L4ml9cuPTZUV2d9Ngzyum/Ka8PHKPptGOQ88tww+CK+GwaLf303DK6wb3YhCIIgCIIgCIIgCIIgCIIgCIIgCIIgCIIgCIIgCPIj/wFaL0G5b3o6fgAAAABJRU5ErkJggg==;" parent="pPhfuKdi2IL3OO1udsqk-34" vertex="1">
          <mxGeometry width="30" height="30" relative="1" as="geometry">
            <mxPoint x="15" y="19" as="offset" />
          </mxGeometry>
        </mxCell>
        <mxCell id="pPhfuKdi2IL3OO1udsqk-37" value="" style="strokeColor=#dddddd;shadow=1;strokeWidth=1;rounded=1;absoluteArcSize=1;arcSize=2;" parent="wXt4vkHNkHTHuegMzTYd-1" vertex="1">
          <mxGeometry x="730" y="360" width="240" height="60" as="geometry" />
        </mxCell>
        <mxCell id="pPhfuKdi2IL3OO1udsqk-38" value="&lt;font color=&quot;#000000&quot;&gt;Service Mesh Operator&lt;/font&gt;&lt;br&gt;Manage decentralized services" style="editableCssRules=.*;html=1;fontColor=#999999;shape=image;verticalLabelPosition=middle;verticalAlign=middle;labelPosition=right;align=left;spacingLeft=20;part=1;points=[];imageAspect=0;image=data:image/jpeg,/9j/2wCEAAgGBgcGBQgHBwcJCQgKDBQNDAsLDBkSEw8UHRofHh0aHBwgJC4nICIsIxwcKDcpLDAxNDQ0Hyc5PTgyPC4zNDIBCQkJDAsMGA0NGDIhHCEyMjIyMjIyMjIyMjIyMjIyMjIyMjIyMjIyMjIyMjIyMjIyMjIyMjIyMjIyMjIyMjIyMv/AABEIAMgAyAMBIgACEQEDEQH/xAGiAAABBQEBAQEBAQAAAAAAAAAAAQIDBAUGBwgJCgsQAAIBAwMCBAMFBQQEAAABfQECAwAEEQUSITFBBhNRYQcicRQygZGhCCNCscEVUtHwJDNicoIJChYXGBkaJSYnKCkqNDU2Nzg5OkNERUZHSElKU1RVVldYWVpjZGVmZ2hpanN0dXZ3eHl6g4SFhoeIiYqSk5SVlpeYmZqio6Slpqeoqaqys7S1tre4ubrCw8TFxsfIycrS09TV1tfY2drh4uPk5ebn6Onq8fLz9PX29/j5+gEAAwEBAQEBAQEBAQAAAAAAAAECAwQFBgcICQoLEQACAQIEBAMEBwUEBAABAncAAQIDEQQFITEGEkFRB2FxEyIygQgUQpGhscEJIzNS8BVictEKFiQ04SXxFxgZGiYnKCkqNTY3ODk6Q0RFRkdISUpTVFVWV1hZWmNkZWZnaGlqc3R1dnd4eXqCg4SFhoeIiYqSk5SVlpeYmZqio6Slpqeoqaqys7S1tre4ubrCw8TFxsfIycrS09TV1tfY2dri4+Tl5ufo6ery8/T19vf4+fr/2gAMAwEAAhEDEQA/APf6KKKACignAyaqS3faP8zQFy0SAMkgCozcxD+MH6VR/eTN/ExqVbNz95gP1oJuyf7XF6n8qPtcXqfyqP7CP+en6UfYh/z0P5UD1JPtcXqfyo+1xep/Ko/sQ/56H8qPsQ/56H8qA1JPtcXqfyo+1xep/Ko/sQ/56H8qPsQ/56H8qA1JPtcXqfyo+1xep/Ko/sQ/56H8qPsQ/wCeh/KgNST7XF6n8qPtcXqfyqP7EP8Anofyo+xD/nofyoDUk+1xep/Kj7XF6n8qj+xD/nofyo+xD/nofyoDUk+1xep/KnC5iP8AGPxqH7EP+en6UxrNx91gf0oDUuggjIORS1mfvIW7qasRXfaT86AuW6KAc9KKBhRRRQAUE4GTRVS7l/5Zj8aAZFcXBlO1c7f50+G03fNJwPSi1h3HzGHA6VdoEl1EChRgAAe1LRRQMKKKKACiiigAooooAKKKKACiiigAooooAKKKKAEKhhggEVUmtSPmj5HpVyigLGfBOYjtb7v8q0AQRkVSuoNp8xeh6060l/5Zn6igS7FuiiigYhOASegrN5ml46savXJ2wN+VVrJcyMfQUCe5dUBVAHQUtFFAwooooAKKKKACiiigApCQBknFLXhP7Q3izULCLTvD9lcSQQ3UbzXJQ7TIudqrkdvvZHfigD1n/hNfC3237H/wkelfad23yvtke7Pp16+1bgYHoc18Of8ACKaz/wAIn/wk/wBk/wCJT53k+dvGd3Tp1xnjPrXtv7Ovie9vIdR8PXczSw2qLPaljkxqThlz6ZwQO3NAHu9FFFABRRRQAUUUUAFFFFACMoZSD0NZpDQze6mtOqN6uJFPqKBMug5AI6GlqK2bdAvtxUtAyC7/ANQfrUdl0f8ACpLv/UfjUdj91/woF1LdFFFAwooooAKKM0UAFFFFABXiH7QnhtNQsdL1WCQfbYWeHye8kZ+bI/3SP/Hq9i1XVrLRrCS9vp1ihQdT1Y+gHc+1eAeJdevPGGviZY3Kk+Xa268lRnge5PesatXkWm57eTZPLHzcp6U1u/8AL9Txv+0dU/s7+x/td39i8zzPse9tm/12dM19C/s9+Fv7N0rUNcncG6umEAi7xIvPPucj8APw4d9OuE1RtO8vN0s3kbFOcvu24B+tdD4M8Tz+EdbZbhJBaSny7mIghlx/Fj1HP61msTrqj1a3CvLRlKlU5pWula1197+R9BUVFbXMF5bR3FvKksMihkdDkEVLXUfINNOzCiijIoEFFJketLQAUUUUAFVL7on41bqpffdT6mgT2HWf+pP+9Vmq1l/qj/vf0FWaBrYgu/8AUfjUdj91/wAKku/9R+NR2P3X/CgXUt0UUUDCuH+J/wAQI/APh5biOJJ9QumMVrE7YGcZLsOpVeM47kDjOR3FeH/tGeH7y+0jStZtkaSGweSO4VVJKK+0hz6KCmCf9oUAeRz/ABU8dXFy10fEN4nzfdjwsY9toGK9n+GHxng1qwlsvE88UF/bgFbgJhZ1PGSAMBh36A5FeI6f46udO+HmpeEEsLZ4b6cTNct99Pu8AdD9wYPbJ9sV/CNtJ9rmucERhNmfUkg/0qKkuWLZ25dhVi8VCi72b6dj6ym+IvhWFSTqqufRInbP5Cud1X4v2EcZTS7CaeTs8+EQe+Bkn9K898O+Fn8SSeVb6pYQTf8APGZ2Eh+g24P4Gu9074O26SK+pao8qjrHBHsz/wACJP8AKudVK017qPqKuXZLgJ2xE5OS6O/6Jfmef3+p654z1ZBKJLq4PEUES/Kg9h2HufxNereBvASeHgNQvysmpMuAF5WEHqB6n1P5ep6zTNH0/R7fyNPtIrePvsXlvqep/Grx6VpTo8r5pas8zMc+lXpfVsNHkp/i1+i8vxPnn/mp3/cZ/wDa1d58QvAL6lJJrOkx5usZngH/AC1x/Ev+17d/r14P/mp//cZ/9rV9DVnSgpqSZ6mc46rgq2HrUnry/JrTRnz34W8a6l4TnaAL59mW/eW0hxg9yp/hNet6T8QvDmqxri+S1lPWK6PlkH6ng/nS+J/Aul+JI2dkFre5yLmJBk/7w/iH6+9eY6j8LPEdm7G2jhvYx0aKQKcfRsfpmi1WlotUTKeUZv79R+yqdel/0f4M9yhnhuE3QypIvqjAj9K8r+MfxPuPBkNvpejmP+1bqMyGVwGEEeSAQOhYkHGeBg8V5pfWF1pt01teQtDMv3kbqK4fxdbSC7hucExlNmfQgk/1q6dfmlytWOHMuHlhMM8TTqc606dH1vdl+D4q+Ore6W7HiG8c56SYZG9tpGK+k/hh8QIfHugyTPGsOo2u1LuJPugnOGXPY7Tx25FfMd944uL74ead4Qaxt0hsrgzi5X775LnGO33zz3wK9l/Z08PX9hpeq6zdRGK2v/KW23dXCF9zY9MkY/Gug+ZPcKKKKACql991Pqat1Uvvup9TQJ7DrL/VH/e/oKs1Wsv9Uf8Ae/oKs0DWxBd/6j8ajsfuv+FSXf8AqPxqOx+6/wCFAupbooooGFMliSaJ4pUV43UqysMhgeoI70+igDz2/wDgp4EvXmlGjCCWQHBhmkVVY9CFDbePTGK8eXTI9L1P+zbtDbxwTeVMIx90A4JHr619R14h8WdNW08Ux3aDAu4Azf7y/Kf0C1zYmPupn1XCldRxMqL+0tH10/r8DJ8QeCtV8Pt9qjBurDho7yAZGOoJA+79envWl4c+J2raVJHDqTNf2fAO/wD1qj1Dd/x/MV6P8Ob06h4HsxJ8zQ7oDn0B4/8AHSKq+Ifhno+sK81mo0+7OTuiX5GPuvT8sfjUKlJLnps7Z5xh6k5YPM4X5W1zJfj3Xy+46PR/EGma9bibTrtJh/EmcOv1U8itM9K+cdX0HWvB+oq0wkhdTmK6gY7T9GHT6Hmuv8O/FmeBVt9dhNwg4FxCAHH+8vQ/hj8auOIV7T0Zw4vhuXJ7bAy9pB/f/k/wfkcx/wA1P/7jP/tavoavm/8AtG2/4Tn+095+yf2l9o37T9zzd2cdeldl4k+LM8++30GIwp0NzKAWP+6vQfU5/CopVIwTbPSznK8TjZ0IUo7R1b2W256ZrOv6ZoNt5+o3SQg/dXqz/RepryDxH8TtW1SSWDTWNjZkkAp/rWHqW7fh+ZrC0jQ9a8Yam5i8yZzzLczsdq/VvX2616x4e+GWjaQI5rxft92vO6UfID7L/jmnzVKvw6IwWGyzJtcQ/aVO1tvl+r+SPMPD/gfWfEjidY/s9oxy11PkAjuVHVj+nuKxJ9Lh1HWG0yxU3MMs/kw+YAfMG7AJ9M9favfvG2pNo/g7ULiIASGPyo8cYLHbn8M5/CvL/hRp63ni43DjK2kDSL/vHCj9CfyqJUlGSgtz0MJm1XEYWvjKqShFWUf8++6R12nfBPwNYmGV9J+0zRgZaaZ2Vj6lN238MYr0GGGOCNY4kVI1AVVUYCgdAB6U+iu4/PG7u4UUUUCCql991Pqat1Uvvup9TQJ7DrL/AFR/3v6CrNVrL/VH/e/oKs0DWxBd/wCo/Go7H7r/AIVJd/6j8ajsfuv+FAupbooooGFFFFABXlPxnC50U/xfvh+HyV6tXi3xd1BbjxFa2SHP2WDLezOc4/IL+dY4h/u2e9w1CUsxg10Tf4NfqdV8ISx8I3Gen218fTYn/wBeu/rj/hpZmx8D2rSfKZ2ec59CcA/kAah8Q/EzRtHVorNv7QuxkbYj8in3bp+WfwpwkoU1zGeOw9bG5jVjh4uXvPb7tzrb/wCx/Ypft/k/Zdv7zz8bMe+eK8A8Yf8ACNf2l/xTvnbMnzM/6rP+xnn+npTNX8R694vvFgleWUO37u0t1O3Pso6n3OTXWeHfhNPcKtxrsxt0PIt4SC//AAJug/DP4Vzzk6ztFH0WBwlLJI+2xdazf2Vt93X12R5lXSeD/wDhGf7S/wCKi87ZkeXj/VZ/28c/09ar/wBnWv8AwnP9meWfsn9pfZ9m4/c83bjPXp3rsvEfwmngD3GgymZOptpWAcf7rdD9Dj8ayhCW6V7HtY3H4ZKNCrNw51dPb8eh6rYfY/sUX2Dyfsu3935GNmPbHFWa+c9H8Q674OvnjhMkOGzLa3CHax91PIPuMGvVfD3xM0fV/LhvG+wXbcbZT+7J9n6fniuunXjLR6M+JzHh/FYe9Sn+8h3W/wA1+onxWz/whbY6faI8/rXM/Bor/aGqg/f8qPH0yc/0ru/HGmnWPB1/BCcyLGJkxzkod2PxAI/GvLvhXqK2Xi8QOcLdwtEM/wB4YYfyI/GonpWTPQy/97kdelHdO/5P9Ge6UUUV1Hx4UUUUAFVL77qfU1bqpffdT6mgT2HWX+qP+9/QVZqtZf6o/wC9/QVZoGtiC7/1H41HY/df8Kku/wDUfjUdj91/woF1LdFFFAwpks0cEbySuqRopZmY4Cgckk+lPrxD9ozxBeWOkaVottI0cN88klwysQXVAoCH1BL5I/2RQB2F38afAVpcyQNrokdMgmG3kdSfQMFwfrnFePXusJrusTarK2+O5mMh2NnC5+6D7Dj8K4ex8E3+oeBNQ8WR3NotpZTiF4nkxIx+XkDp/EOM5PP4s8I3Mgu5rYkmMpvx6EED+tYYiHNG/Y+j4axkaGL9k4/Hpfqv+HPV/EHjTUdeSOxtkNlpyKI47OBiQQOAGP8AF246e1aPh74Y6xqzLNfg6fannMgzIw9l7fjj8a4+xv7rTbpbmzmaGdfuuvUV1um/FPxHZOPtMkN7H3WWMKcexXH65rkjKLd6h9ji8Pi6FH2eXRjFee/+V/Ns9i0Tw9pugWiwWFskeAA0hGXc+rN3rT7VzXhzxzo/iJUjinEF4RzbSnDZ77T0b8PyFdLXoRcWvd2PzTF08RCs1iU+brc+ev8Amp//AHGf/a1fQ1fPP/NT/wDuM/8AtavoasMP9o+h4n/5cf4f8jL1vw/pviCza31C2WTghJAMPGfVT2ryDxD8MNY0ovNYD7farz8gxIo917/hn6CvUNf8b6L4eDpcXIluR0t4cM+ffsv415rqHxb1y5ZhZwWtpH/D8vmMPxPH6UVnSfxblZDDNoK9Be5/e2+XX7jK8NeOdW8MuYG3XVmPlNtMx+X/AHT/AA/Tp7Vz8+pQ6fqjajaObeKKbzoS5A2YbIB/Qe9Sapq17rN2bq/kWWcjBcRKhP12gZrg/F1zIbuG2yRGE349SSR/SueCdSSjfQ+lx9Wnl2Hni/ZrnlZNLZvz289bXPpbTPjX4HvzDHLq4tZ5AAyzQuFU+hfbt/HOK9BiljniWWJ1kjcBldTkMD0IPcV8UXngu9svAth4se5tmtL2doEhV/3ikbuSOn8J+nHrXtX7OniG/v8AStV0e6maS3sPKa2B6oHL7lz6ZAx9TXon5e3d3R7hRRRQIKqX33U+pq3VS++6n1NAnsOsv9Uf97+gqzVay/1R/wB7+gqzQNbEF3/qPxqOx+6/4VJd/wCo/Go7H7r/AIUC6luiiigYVw/xP8AR+PvD6W0ciwahauZbWZhkZIwUb0U8dO4B56HuKKAPii8+HvjKw1CTTpPDuqPIGx+5t3kRvQhlBUj3zXv/AMHfhhc+C4Z9U1gJ/at0gjESkMII85IyOCxIGcccCvWMUUARywRTpsmiSRfR1BH61zer/D/w7q0bA2CWsp6S2oEZB+g4P4iuoopOKlujehia1CXNSk4vyZ8+eKvBWpeE51m3NPZlv3dzGCNp7Bv7p/nXc/D3x6+pOmj6tIDdAfuJ2P8ArQP4W/2vfv8AXr6Lc2sF5bSW9zEssMilXRhkMDXgPjXwtL4U1pfILmymJe2kzyuOqk+o/wAK5JwdF80dj6/B4ylndF4TF6VF8Mv6/FdRn/NTv+4z/wC1q7X4heP5rS4l0TR5NkqfLcXCnlT/AHV9D6mvKnvJ3vmvDK32lpPNMgODvznP1zXT+BPCZ8T6sXuA32C3w0zD+MnogPv39vwrKE5O8Y9T2sbg8NHkxWKd40o2t5/1siPwr4J1HxVK0wb7PZqfnuJFJ3H0UfxGvVdL+G3hvTUXfZm8lHWS5bdn/gP3f0rqoIIraFIYY1jiRQqoowFA7AVJXXToRitdWfGZhn+KxU2oScIdl+r6/kU4tJ02BNkOn2sa+iQqB+grzH4v/CuXxdb2+paHHEmp2iGMw8IJ0zkAHoGBJxng5NetUVtZI8SU5S+J3Pim0+HvjK+1CPTk8O6mkhbH763aONfcswCge+a+nfhj8PofAWgvC7iXUbra93KudpIzhVz2G489+Tx0ruMCloJCiiigAqpffdT6mrdVL77qfU0Cew6y/wBUf97+gqzVay/1R/3v6CrNA1sQXf8AqPxqOy6P+FTXIzA3tzVaybEjL6igXUvUUUUDCiiigAooooAKKKKACvFP2gvFf9maXp+i28am6uXNwZTyYlX5Rj3JJ/I17XXhP7Q3hTUNQi07xBZQPPDao8NyI1JMak7lbA7feBPbihq+5UJypyUoOzXY8G/s7VP7O/tn7JdfYvN8v7Z5beXv9N/TNfQv7Pnir+09K1DRLhFF1asLgSjrKrcHPuCAPoR758E/4SvWf+EV/wCEZ+2n+yPN87yNi/ezn72M4zzjOM17d+zr4XvrKHUfEN3C0UF3GsFtuGDIoOWb6ZwAe/NFkCqTUXFPRnu9FFFBIUUUUAFFFFABRRRQAVUvuifjVuqV62ZFX0FAnsSWX+qP+9/QVZqK2XbAvvzUtA0IRkEHvWbzDL7qa06qXcX/AC0H40CZaUhlBHQ0tU7SbB8tunarlAJhRRRQMKKKKACiiigApCM0tFAGD/whPhf7b9s/4R7SvtO7d5v2OPdn16dfet0DaAB0FLRQAUUUUAFFFFABRRRQAUUUUAIxCqSegrNJM03uxqe6myfLU8DrS2cX/LQj2FBL1LQGAAOgpaKKCgoIyMGiigChPAYjuX7v8qdBdbflk5HrV0gEYNVJbTvH+RoFbsWlYMMqQR7UtZgMkLd1NTLeuPvKD+lAXLtFVPtw/ufrR9uH9w/nQF0W6Kqfbh/cP50fbh/cP50BdFuiqn24f3D+dH24f3D+dAXRboqp9uH9w/nR9uH9w/nQF0W6Kqfbh/cP50fbh/cP50BdFuiqn24f3D+dH24f3D+dAXRboqp9uH/PP9aYb1z91QP1oC6LpYKMkgCqk11nKx8D1qAmSZu7GrEVn/FIfwoFe5Hb25lO5vufzq+AAMAYFAGBgdKKBpBRRRQMKKKKACiiigBCARggEVG1tE38OPpUtFAFb7HH6t+dH2OP1b8xVmigVkVvscfq35ij7HH6t+YqzRQFkVvscfq35ij7HH6t+YqzRQFkVvscfq35ij7HH6t+YqzRQFkVvscfq35ij7HH6t+YqzRQFkVvscfq35ij7HH6t+YqzRQFkVvscfq35ipFtol/hz9alooHYQAAYAwKWiigAooooAKKKKAP/9k=;" parent="pPhfuKdi2IL3OO1udsqk-37" vertex="1">
          <mxGeometry width="30" height="30" relative="1" as="geometry">
            <mxPoint x="15" y="19" as="offset" />
          </mxGeometry>
        </mxCell>
        <mxCell id="pPhfuKdi2IL3OO1udsqk-39" value="" style="strokeColor=#dddddd;shadow=1;strokeWidth=1;rounded=1;absoluteArcSize=1;arcSize=2;" parent="wXt4vkHNkHTHuegMzTYd-1" vertex="1">
          <mxGeometry x="730" y="430" width="240" height="60" as="geometry" />
        </mxCell>
        <mxCell id="pPhfuKdi2IL3OO1udsqk-40" value="&lt;font color=&quot;#000000&quot;&gt;Red Hat OpenShift AI&lt;/font&gt;&lt;br&gt;Create AI-enabled applications&amp;nbsp;" style="editableCssRules=.*;html=1;fontColor=#999999;shape=image;verticalLabelPosition=middle;verticalAlign=middle;labelPosition=right;align=left;spacingLeft=20;part=1;points=[];imageAspect=0;image=data:image/png,iVBORw0KGgoAAAANSUhEUgAAAOEAAADhCAMAAAAJbSJIAAAAwFBMVEUAAAD////uAADyAAD0AAD3AADo6OjsAACTAADmAAD4+PjbAADfAABFAAD8/PzpAADOAACLi4t9AACsrKxoaGhFRUXw8PA8PDzVAADc3NysAADi4uLDw8OlpaXLy8vT09NgAAC7AADFAAA/AAB5eXmYmJhbW1spKSmdAACHAABmAAAvAAByAAANAABLAAAcAACyAAAzMzMXFxe5ublRUVEtAAA2AABTAAAcHByBgYFvAABwcHAlAACPAAAXAABaAACo0uqhAAAV/ElEQVR4nO1dZ1viTBcGkoAUqYo0pSgKCIpl7eX//6s3ZGqmngmJvvtce3/aRULmnnLmtDmTy//XkfvtBmSOfwz/fvxj+PfjH8O/H/8YpoNKcdgfj0enBJ3xuN8vdus/8e6MGVaK/YfW0eXx1X1OwsvJ49HF/CxrotkxrHRHrfcTmZjM9PLidFjJrB0ZMSyeXtwByHG4nJ9l05QMGNYfXhVzEoLH0376zUmbYbHzmIwdQWuccotSZdh9uNyPXoSrdEmmx7Def79KgV+E404xtXalxbC77+wUcHUxTKll6TAstl5S5RfhcpRK29JgWLxIn16Ek4cUWrc/w+F7Rvx2uO/8OsNilvx2uNp3HPdj2G1lzG+Hk/2Unb0YdlLbHsx430eu7sFwnO7+YMQ8uWaemGHlJyYow0liPScpw1EGG6AZFz/LMGsJqkQyiZOI4fjHBxDhNYk3IAHD+vx3+IU4TmA/ujMspmEhJcW9+/7vzHD8Q3ugDq9ZM3z4XX4hHruZMnz9bX4hXtwWoxPDym8uQQ5OhqMLwyLE+/kjOM2GYd/RA5olWlkwHCd0gmYDuA4HZjj+bU4CwBShDM9+m5EEKEUgw9Fv81EASBHG8P9tiiK8p8fwt2wJG0AaHIRh0UEVvZ4sB9NqrVqtTRftyTXsoafVcjCr1cLHwoe+P+Bvg2waAIZd8D5489mseb7vIYT/qDWX59aHDpo1nz0UeNVZ+wn6RoA7FcDwGPayzWrmhe0s8AhbXJitDA99rZvhQwXhoaAxfQZStNv9doZAh8W6FwgtJQ0Omm+6h5Y17UOzCey9VjXcyhBm0N80NU3FHJVzdVI1PjT7A3nzlc3PaGMI2wgX8ZkWrah4cw/kh7aB5SFvCXn3434M+xBl9Lrnc83yg3Kv2Wz2GgG/Kv2ZICIP+Yf8ICg3dw+V4g9NIRQtAtXMsAKRMs9ljzW1t13fXH9tNpvbp5v1tMrG1q/e8A+t2EO+1xu8HZKH2tMa91ATIlXNvhszQ0hg8LlBGuQ3pquv2N9uV9MS+atX4yi+FehD5cF3/Ac/3mbsr72bnBX3xrCGkSFkEdIR9LzpoeLvN1My7bwa/fuKUPBKA9UoPc/YQwCt4Tgpwy6A4DkZQb+q28ImVbzivAZhTdrvN1WdssNbmTzU29hbYVqKJoaQRVgjbR0YvjQISGvR/8kI+goJS7CZBkRGAZph2BUNDE8BvzxFPe0V2savtQO+H5oenqET40MH5KGFvR13SRgWAQTbROJrtRbhi36own0GmKBNM8NfLAQAaaOfp3qGR/af3ZRwu20EQ/0MD3bv66mBe+Xb+hAeRa9pb0pOG1/UMoQ4tweo2SqFRcICfdf/3GKuksJydSeZofi7gXkNRHjUxaV0DCEm0xNeTxBRkMvNsHgpqSTT3fysX+wOx6P3OEskyLzqrf33dT5UHUNIDBsPYQNmsp6T2YnazKsGj5wNVOnwiuJ3ATyI95pUOA3DPqDJ12U0GiD9OMdkI5E4FIIZW+eDI2iekm3GCI3bRsMQEqBAwsOrAgnmbmtMf+UmtkLn4mTAOe7GCeAFamGjZgiymdC25gMmEMYntSYC1mClUslRREvBqFAQqJU3NUNICOYwWldeDWSnRvgqkSHkNDG1G4KJgUP0RA2gu6ljUkqGoDDoOlpW3hZMMNSAZG2N7dTd4VmR2eusj9FUKdl3z1zuBMwQ5FxD0yeAvJlgjadpQO2JO8IJZQBezcmuxqIIBz5cnqkGUcUQ5rmoRn0LMW4YsI7ChNNcnDVXROZTtf8wAC9EpUdDxRAUCEWSEbjbE+ANnM3sodSn9zhM36EvKjuIbMUgKhjChvAQvRjkSaHYIvFLjYVL9MYu71THARe2IyNlqAx6gUJ3UzCEBeu/S/HGgoCUU7bBXAjjFQHNU+YiQt3SiPtHdJD3RJkhMM60FhoLApIaATWb5qo+7QgfDpAwhXn6ZcVGZgj1caPGmlz2MjBD6rrADOOJqi2RYfRQAxjLkBQIiWERGK7HDO2WIY8fYCiZwhJDiO9ihzeHbYpCwzA+Sx+ED7cus5TtsFqG0JyZ5wbdpm520b8AozYbLLVeB5EhljRx6Y0kDTNQpw6yNCf7h0WG4IyEJ7RbNNvTUsHnXPG7uGGhMFsq3YQiw2PU4THXOp5mdLfY9JAshTZM3PVFhvDkX6TTFMToH+bpN5ptWScXGRIvICe/MWm2Wq6RkQZXLQRZIzCswNOCZkpqPMnaQgyqSQyJXKCZAo9kGdHVskJaG8QXhCC4MwSG8OTKw56F4Y5jWdDLJYYvRA3ttsJ1d88OOrGGIEHjwaKJOwi+U4EhwIVI3ivGs8P150tRbkGblBjySTH9MfO01Kket6H+Y/Aoxh02AkPgb7yVfJ6cHwTV6XYRYjsrBwG3NH0bQ01ojPX0nyr5tUAbGREQn6ZxhjClm4YUopkYVLdxmXK+nJYDYglaGSqNfN4XNaWd6QUwLTjuzYgzBJ2Dea6xd/pNSZpEffC8LYcj6QWCB0DFUGHxxDKRr7lov98EmaOxTT/OEPJ4m0ZEQ356tfTPsleubQWDYIIYCp++xjO3+4Jxc7tkoWSvDJmpHS3DIeDpTxq7NPGLWnYuK1rNUBYFkrl+d8o4DhWp5F9tEoIseIWJvY0XWoYAnXQZ0N50U0kRbhe16qfi83ts9fQ15+G+FiRa7hXW1rfEMlBiDO17BQkEFnz4/gQDaoFe1B3SSDJgFIcahnaFhhIMkgygETaGXCS5YF2Lcw1Da0x04oHf4Qw7w1wbiwCvbLOkLjQMbcvwCQcevJo14dAdAIa5CV6M1uyFk66aoS17ZoZjm1VdAsU+gDDMrTBFq/e0qGRYsZzrPcAEa1kQhDHMrYigs/iHRkqGlmV4iBdhY+LScDBgDElgwLOY/C0lQ8t+j3X8wL4dJQKQIQk8Wxy1R0qGHeMzbwFsBSQFlGEO26WBUZ5yvm+OofnkHfph2+xIDjDDD7xjGeMJXNyVY2jUaNZ4CCdOzXYAmCEJJfvGPbmvYGjMJcWWtmMgxgWoEXVInYYeoC0jBUPjqYoJGsJSBls9Rh5O8Q2txIapMXMFQ2OCCfLK+i4hbUeQhVMB+DNxjoTJcXOhYGiKOeFsnxIghc6Ix9OH0ehhrloPl7QhKN7d2n3zVB3pQ3LdGDS9VDA0LXJkUzgGfEVwNZEqp/JJKhYXu8i1mNY1UpDEbnBvon8Z89Uwhia9G08Lt0CTgHjmk6IwA6MYD66MZKMOR1oNuz4L0DCGhu3wD4rZVx3OXElvlOJ68qlb3Wm7riR9zpGnv6Z/H8144BgaLIuVv+9WcaI42SJHKnVnJmWbAE0qgzS9pxsiY2gI32Mn4B4aqbIOghzn0o1iRYz5iQkBMmhAH8QQBWH85JshZ8zUuWwJ01qMf1MU9N+BbSFSRzNjaFBp0DLswbIhFKCiu7LbKI6Z111OvqKzuRP2+B2TqYKUuA1s68aJ4UeS1BkeZE1Q64W8Xgp1SdE2opuIZz+sYVMnhs+l/ewmEpXl9iM8baVc66E0KclZX0EQ4iRA/UtHLgzXaBkmdiDO5bVE4oaCioaTC+u8ivygHG5sCOvDGE4M20lSZzhgsRazzlrSsHKfxmzxE+U0xQz1ws+J4VLIZHIEtkbjbiC8QQrqPmpWPS7WUQcJ7mpkJBr0NieG6NfMboMQT8u28tAAnpFxMkraWDx040ormqb1+JaIPFKefl5lwHAZ+IEypODOMP7hzzE0u0mjRFevphjFKxVD/KHAEDVL8DbgqRsXu20bQ6fdAkuaifYLO+C0b9WX0HYY17ywEiBISGx/xLZ3nFJbiX8TqW2e3mBVMNS7DxBDi+2ExJHSF40nTExHww0QwurYzRkbbimjNgKWpfqVo2Co10snEB8s6tSGqlOxsslPPqJ/Ct36kpc6466r6B+SZVPQR2gUmrfemYh8GBatDecqqzaoK9zIIl1Kl1j9lDwnRD5QDeYKt1T0UM1sOo3CetJbwBucpGcKaSF3o1dVfoeY9xX8Dqp6S71K0+7w+a4LYnYJPpZNweKpeVFYwIbyEChu6Ju2ixvkOVGfhbynFkNl1OkwU6ore2tYds2403mgz9UFOfhkO6JwRS1SxtCQ0jawZ8tik1Tj4GOerzhkH+29usyFmOiztLVI5YkyeBOxq81wWPUPHmadZjdXNVtJUdkZUtAImxb6AzssyxTkEb5B7lJDWBJvT/roM5zikTyK0vT6g87sGcJELLzGGA4NmRg90yoLcYOPvqpSZTBeNSUri9JafBQO1yscj29WE5+FSBnDriHDm4QldQxw/mDZlGNz98D5Xbot6j5VHA6I1bY+Uyhb2HFkcI0x7zMXXTO4or5Jto564uOgpS2P926ONrf6aLdr0C1Ddf7hdYS6oz9X9fsNao0p6WSsYmhwmG5IQrCvoLjpkRwNM0GEE9pkRlFdLO3kWLduBvbUb2WE1OTWX5LMuUCaqGuSqwgpfRADo+hWufcQC76J/it3XRVD00EELLx2v9tb8wJzReusmMSMBgkpDuznu9WZCsZskwHLmvVqg7fnp9vbj/PVQZUmdidyxSWi+IynjEkBeVUylFznPK65FHUvNOZr1Wq1zGV0J/Q12taiCnjrqpoc1A9KhubTJAsud72AKnNx/03sTKUUIdm7EQ4gtTKGaobm0myG4xW28jQmUIrAKsw3+CyxscrClSZzz3y2su3r+AVipTInEIqw2yRucVkqs+DmAzyxDFrzj89UFD3fn+2ZbNpxYEg2ZovDQZdBa5koT1yJNZ8UqmwutC649na6OGhPrON7BGf41YQpF2MdQ0uNxDVJEZ5NDqbNZnN78Haot/tnQXRQyKvZinXCGX6RDNeGZdpoM9lth5yJPIUE2mhKeMizPDWtGjDDjyZ5v0WwHeV1DK0nSsgJHb9nzdQf8KvW87f6cYQyPCRndaxH5E/1DK3HEWgvNmyRKGH/9AtaFQTIkOSxF+QTKSKKeob244dNqoJvzbWbNgXhpF4w0yghIIbXM3oQwrpEXvJ6hoA6gpSi3zCHTA9nteikHhPAmhR/AMPNgtaKtI+g4DERzh8CCgmybdGvtY2nAm4/ng75Yp2eOrXRyvBjWWbvBKiHZyaG5kxohAUdFs+vHViNwo91kx4GK6ui0haGzwO+jyCh9ryJIUj/ZefzQo6l2cGhrZraG5GCXlOxFg0M/zwv+FrRfnUCaF7LyNAQgeJw3uQE5e4U6XTQ/j43KC8bss2oVtGliuHH+WS5O3LLnbj1/ClI/x2bGQIPcy+92HYXKi9BYJQBZPOQfa5HeNn0+a1qFsSEFJJssNRIsQymyLALNbYHvqSIG4/pktKQtfg8bXEKFnOMTqXf9gvQo9ximXapLgb4NqDrgVhPwZwXRkpD8i09FnIyu0j3/wri9LygvICmnL2IxQUlhpB6ghhPix6/TmwFHGc4KZR96UJ24EcdfMszDFdAcwk/zimlN8oVeFxuPPqabKtsJC2J7jhZnAWMlLmWkdeW1mvwglJv4WR/SmWUZIaO15FsvpdTXNXSGGDMEQ8L9T9cqSuO7noYH34o1LZtR/NaLoUlMzS63NTAkSfbWYUvPC5422e9PXx4YP+JnPy9pInlcokGRa0vaJUhBmT8B9ZqALiYGXId0znaQY5EavLsJGpbLOwGhFRhSMmw7nqxE05ntdcYPeRLLZIUBLruSWWaaBDRcJch9SB5KG70UNXccx3ElTUlmYA7/0bC0JyT9rLOPkLxM2sunQBVjFzF0OJzk7CwZWBR4Hbv/olNnJhcwxN1p/5/Jsr4VEWalbUvHa/hxBWbAXvWgtXFwLpazKuAU0l3AZRkWbsq6ayu0Or2u7jcGOCbXG0TtAy78TWP4ts7OxxnXsNrJ+2gLAetZui2EmcJGOITH9rsy+sE2fP36tFSfpp3iudNk4yhhSHONHPaLtTlijQMnRSbrS3HjGLB5AeepbGsUZxWu2OIS2u6RF01t1zoKpa7aKfWrHLhm9HqwrlfMbsX28I75b/tXlpTU1lfx9DBxCD6JuBYVI+pKjhtNDZNsXyd0990qVKsu4RNx9Blx/gGV/rlYn9E7+Z8X2Q3280fdDgtgIftrjRF5/UMXRRw1HD7Uf01ubBiN6FJiiKlSAjuoidISYfXezfcwKZl6HJrJZp89mwTUogwUvBo8e1ia6d6v1Jzf6cEfMKsFQZd9qPxFhbIVUgIC9gJzCdqupd3dr6m1yMxjq0VuPWkv+jZwDAPtjGeIJFnmjJJtXTlNU1RVi0JzYEJGi61MjGE383ZtOQuRnjjHGhRxrvkNMrj5X/b4PoBAv0ctdxoBUseCLECRNefarzTKuqMO2kLQ9dGkxuIoLbTvekyciNDmAd8B1Kg0rAnkgg1poiEyGncGniIzH3idwTLGeM93WaGQ2im0jcZGy1FPC7+YBYb72NO3uDiAsQ9bsxW5WG+PM/MEF6xlYb4NXpWk7q8STUmWjXy/fThbDw6fb2P/xK4JJz2liAQQ7BqQzNQlSHaCb2d7Zu7wKunSFS5JkEf8Bx9MS1CAENwVdprSkIqqHg+JU5jNC60eJ43ECbiLY1Nej3ABUgRtFdZQRnWodrbDRUifu2A+XE/3qa0YC0J3dAwst/YshsTN98DGuu1l9UjMF/vCGEILkOfW3GFTUvV6ed69bZcNGuqDE0uUu5VZ4v2atU+mFULLIcVXNVPd8rBhSF847/hdjwUUoyXMme75WbrG75Z8CF3dEUA3D4OYAgXqB/K5D6yPGMbyaeQi8LBgyvcl2YxCmYIyl9AWBbUHOUMTe0NwkJXmKDw4Sdk6GAObwa+XIfeC3oKY31dljmGKxjuQDyGEAQydHEv3i6qXAje87ygNJ2ov7qO3eS9y+ZsfsIjFXeWjdCNoZMH9etmMeuVorsg/FpzujbEpJ7a02YZXRvR6M0+Xapqat0WCRm6evo/Dp9Xq9X387V1TDbnz5Pwq8/nbsVhjoEE4QxdKWYMkJBxZOggUbMHTMi4MnS4GiJrmGz6fRjm+/CDLZnCcpv6HgyNpzB/DlrXaAoM83X4PTRZ4V59J2RaDH9fpJ5Ad4nEDPOjX12M7wBde1+G+SLYA5c+3JZgUoa/N1NPlF7yLBjm+6CbStOG3Z5Pj2G+DnaHp4aTvr1ZKTJUFwLIEi1nEbMvw3zlJ1fjZcIB3IthPj8E3/C1J16sLsOMGIZT9UckTgtuSKTOMLQ3XFM1nXEBc1ZkxjA0G91KPjji3VVJy4Bhvt7JbK6+Jtni02cYitWHLBS5lzT4pcQwHMfxUcoL8uR07/mJkBLDEMN5igvycpR0g5eQHsMQo3Ts47u0hi9CqgzD2fqwL8mTeSqrjyFlhjuMWoll69HpnpufAhkwDEeyeHrhzPKydbaX7qJDJgx36BY7F5dA2XN8NB8XUxMtAjJjGKHYH7WOju90np37q5PHi854mMnYEWTLEKEyHJ+NOvOLo6PHkwhHR++t+Wh01k9/1cn4CYa/i38M/378Y/j34x/Dvx//fYb/A4isqkRlwCQ0AAAAAElFTkSuQmCC;" parent="pPhfuKdi2IL3OO1udsqk-39" vertex="1">
          <mxGeometry width="40" height="40" relative="1" as="geometry">
            <mxPoint x="5" y="9" as="offset" />
          </mxGeometry>
        </mxCell>
        <mxCell id="pPhfuKdi2IL3OO1udsqk-44" style="edgeStyle=orthogonalEdgeStyle;rounded=0;orthogonalLoop=1;jettySize=auto;html=1;exitX=1;exitY=0.5;exitDx=0;exitDy=0;entryX=0.5;entryY=1;entryDx=0;entryDy=0;dashed=1;" parent="wXt4vkHNkHTHuegMzTYd-1" source="bmn1_vXYTztaUBc_xjYz-88" target="pPhfuKdi2IL3OO1udsqk-39" edge="1">
          <mxGeometry relative="1" as="geometry" />
        </mxCell>
        <mxCell id="pPhfuKdi2IL3OO1udsqk-45" value="&amp;nbsp;Import&amp;nbsp;" style="edgeLabel;html=1;align=center;verticalAlign=middle;resizable=0;points=[];" parent="pPhfuKdi2IL3OO1udsqk-44" vertex="1" connectable="0">
          <mxGeometry x="-0.7714" y="-1" relative="1" as="geometry">
            <mxPoint as="offset" />
          </mxGeometry>
        </mxCell>
      </root>
    </mxGraphModel>
  </diagram>
</mxfile>
